<svg width="89" height="80" viewBox="0 0 89 80" fill="none" xmlns="http://www.w3.org/2000/svg">
<path d="M39.4883 66.8085C38.4847 66.4533 37.5012 66.0435 36.5423 65.5811C30.4574 62.6318 25.5084 57.1617 23.6561 50.5969C22.0938 45.0722 23.0981 37.6393 29.1105 35.2368C30.5928 34.6506 32.2053 34.4737 33.7794 34.7246C35.4052 34.9835 36.8358 35.8862 38.4728 36.1362C44.262 37.02 48.1576 31.1381 53.7694 31.0031C55.9587 30.9495 58.6 31.59 60.2973 33.0429C62.4822 34.912 63.8403 37.6928 64.9762 40.2783C66.1814 43.0201 67.0629 45.9247 67.3363 48.9153C68.0059 56.1831 64.4674 63.0257 57.9629 66.4113C52.3053 69.3572 45.3578 68.8975 39.4883 66.8085Z" fill="#FFEB80"/>
<path d="M46.9999 5.33334C43.3181 5.33334 40.3333 8.31817 40.3333 12C40.3376 15.68 43.3199 18.6623 46.9999 18.6667C50.6818 18.6667 53.6666 15.6818 53.6666 12C53.6666 8.31817 50.6818 5.33334 46.9999 5.33334ZM47.0331 16C45.3319 16.007 43.8124 14.9373 43.2453 13.3333H46.9999C47.7363 13.3333 48.3333 12.7363 48.3333 12C48.3333 11.2637 47.7363 10.6667 46.9999 10.6667H43.2453C43.8083 9.07417 45.3109 8.007 46.9999 8C49.2091 7.99084 51.0073 9.77433 51.0164 11.9833C51.0256 14.1925 49.2421 15.9908 47.0331 16Z" fill="black"/>
<path d="M22.9998 10.6667H18.9998C18.2635 10.6667 17.6665 11.2637 17.6665 12C17.6665 12.7363 18.2635 13.3333 18.9998 13.3333H22.9998C23.7362 13.3333 24.3332 12.7363 24.3332 12C24.3332 11.2637 23.7362 10.6667 22.9998 10.6667Z" fill="black"/>
<path d="M32.3333 10.6667H28.3333C27.597 10.6667 27 11.2637 27 12C27 12.7363 27.597 13.3333 28.3333 13.3333H32.3333C33.0697 13.3333 33.6667 12.7363 33.6667 12C33.6667 11.2637 33.0697 10.6667 32.3333 10.6667Z" fill="black"/>
<path d="M35 61.3333C35.0043 65.0133 37.9867 67.9957 41.6667 68H52.3333C56.0133 67.9957 58.9957 65.0133 59 61.3333V60H60.3333C62.5425 60 64.3333 58.2092 64.3333 56V48C64.3333 47.2637 63.7363 46.6667 63 46.6667H36.3333C35.597 46.6667 35 47.2637 35 48V61.3333ZM59 49.3333H61.6667V56C61.6667 56.7363 61.0697 57.3333 60.3333 57.3333H59V49.3333ZM37.6667 49.3333H56.3333V61.3333C56.3333 63.5425 54.5425 65.3333 52.3333 65.3333H41.6667C39.4575 65.3333 37.6667 63.5425 37.6667 61.3333V49.3333Z" fill="black"/>
<path d="M74.9999 16H60.3332C59.5969 16 58.9999 16.597 58.9999 17.3333C58.9999 18.0697 59.5969 18.6667 60.3332 18.6667H74.9999C75.7362 18.6667 76.3332 18.0697 76.3332 17.3333C76.3332 16.597 75.7362 16 74.9999 16Z" fill="black"/>
<path d="M60.3332 10.6667V8.00001C60.3332 7.26368 59.7362 6.66668 58.9998 6.66668C58.2635 6.66668 57.6665 7.26368 57.6665 8.00001V10.6667C57.6665 11.403 58.2635 12 58.9998 12C59.7362 12 60.3332 11.403 60.3332 10.6667Z" fill="black"/>
<path d="M63 12C63.7363 12 64.3333 11.403 64.3333 10.6667V8.00001C64.3333 7.26368 63.7363 6.66668 63 6.66668C62.2636 6.66668 61.6666 7.26368 61.6666 8.00001V10.6667C61.6666 11.403 62.2636 12 63 12Z" fill="black"/>
<path d="M67 12C67.7363 12 68.3333 11.403 68.3333 10.6667V8.00001C68.3333 7.26368 67.7363 6.66668 67 6.66668C66.2636 6.66668 65.6666 7.26368 65.6666 8.00001V10.6667C65.6666 11.403 66.2636 12 67 12Z" fill="black"/>
<path d="M70.9998 12C71.7362 12 72.3332 11.403 72.3332 10.6667V8.00001C72.3332 7.26368 71.7362 6.66668 70.9998 6.66668C70.2635 6.66668 69.6665 7.26368 69.6665 8.00001V10.6667C69.6665 11.403 70.2635 12 70.9998 12Z" fill="black"/>
<path d="M75 6.66668C74.2636 6.66668 73.6666 7.26368 73.6666 8.00001V10.6667C73.6666 11.403 74.2636 12 75 12C75.7363 12 76.3333 11.403 76.3333 10.6667V8.00001C76.3333 7.26368 75.7363 6.66668 75 6.66668Z" fill="black"/>
<path d="M84.3332 25.3333H77.6666V24H80.3332C81.0696 24 81.6666 23.403 81.6666 22.6667V6.66667C81.6622 2.98667 78.6799 0.00433333 74.9999 0H18.9999C15.3199 0.00433333 12.3376 2.98667 12.3333 6.66667V22.6667C12.3333 23.403 12.9303 24 13.6666 24H16.3333V69.3333H13.6666C12.9303 69.3333 12.3333 69.9303 12.3333 70.6667V73.3333C12.3376 77.0133 15.3199 79.9957 18.9999 80H74.9999C78.6799 79.9957 81.6622 77.0133 81.6666 73.3333V70.6667C81.6666 69.9303 81.0696 69.3333 80.3332 69.3333H77.6666V33.3333H84.3332C85.0696 33.3333 85.6666 32.7363 85.6666 32V26.6667C85.6666 25.9303 85.0696 25.3333 84.3332 25.3333ZM14.9999 21.3333V6.66667C14.9999 4.4575 16.7908 2.66667 18.9999 2.66667H74.9999C77.2091 2.66667 78.9999 4.4575 78.9999 6.66667V21.3333H14.9999ZM36.3333 37.3333H41.6666V42.6667C41.6666 43.403 42.2636 44 42.9999 44H50.9999C51.7362 44 52.3332 43.403 52.3332 42.6667V37.3333H57.6666C58.4029 37.3333 58.9999 36.7363 58.9999 36V30.6667H62.9999V32C62.9999 32.7363 63.5969 33.3333 64.3332 33.3333H74.9999V69.3333H18.9999V24H34.9999V36C34.9999 36.7363 35.5969 37.3333 36.3333 37.3333ZM37.6666 34.6667V24H56.3332V34.6667H37.6666ZM49.6666 37.3333V41.3333H44.3333V37.3333H49.6666ZM62.9999 26.6667V28H58.9999V24H74.9999V25.3333H64.3332C63.5969 25.3333 62.9999 25.9303 62.9999 26.6667ZM78.9999 72V73.3333C78.9999 75.5425 77.2091 77.3333 74.9999 77.3333H18.9999C16.7908 77.3333 14.9999 75.5425 14.9999 73.3333V72H78.9999ZM82.9999 30.6667H65.6666V28H82.9999V30.6667Z" fill="black"/>
<path d="M24.4999 32.8895C23.775 32.8895 23.1873 33.4772 23.1873 34.2018V38.1393C23.1873 38.8642 23.775 39.4516 24.4999 39.4516C25.2247 39.4516 25.8124 38.8639 25.8124 38.1393V34.2018C25.8124 33.4769 25.2247 32.8895 24.4999 32.8895Z" fill="#FFAA00"/>
<path d="M24.4999 47.3262C23.775 47.3262 23.1873 47.9139 23.1873 48.6385V52.576C23.1873 53.3009 23.775 53.8883 24.4999 53.8883C25.2247 53.8883 25.8124 53.3006 25.8124 52.576V48.6385C25.8124 47.9139 25.2247 47.3262 24.4999 47.3262Z" fill="#FFAA00"/>
<path d="M15.3129 44.7014H19.2501C19.975 44.7014 20.5627 44.1137 20.5627 43.3888C20.5627 42.6639 19.975 42.0765 19.2501 42.0765H15.3126C14.5877 42.0765 14 42.6642 14 43.3888C14.0003 44.1137 14.588 44.7014 15.3129 44.7014Z" fill="#FFAA00"/>
<path d="M33.687 42.0765H29.7499C29.025 42.0765 28.4373 42.6642 28.4373 43.3888C28.4373 44.1137 29.025 44.7014 29.7499 44.7014H33.6873C34.4122 44.7014 34.9999 44.1137 34.9999 43.3888C34.9996 42.6642 34.4119 42.0765 33.687 42.0765Z" fill="#FFAA00"/>
<path d="M24.4999 44.7017C25.2248 44.7017 25.8124 44.114 25.8124 43.3891C25.8124 42.6642 25.2248 42.0765 24.4999 42.0765C23.7749 42.0765 23.1873 42.6642 23.1873 43.3891C23.1873 44.114 23.7749 44.7017 24.4999 44.7017Z" fill="#FFAA00"/>
<path d="M0.875496 34.2205L3.46649 35.5337L4.78089 38.1272C5.07635 38.7064 5.48652 39 5.99974 39H6.00259C6.35631 38.9992 6.85452 38.8465 7.21911 38.1243L8.53222 35.5337L11.1214 34.2212C11.7043 33.9268 12 33.5164 12 33.0012C12 32.4856 11.7045 32.075 11.123 31.7814L8.53222 30.4683L7.21963 27.8788C6.92573 27.297 6.51582 27.0013 6.0013 27C6.00052 27 5.99948 27 5.99871 27C5.64525 27 5.14833 27.1515 4.7796 27.8741L3.46649 30.4686L0.876788 31.7811C0.153298 32.1467 0.000779561 32.6449 2.72813e-06 32.9986C-0.00103305 33.5123 0.292872 33.9232 0.875496 34.2205ZM4.73687 32.206C4.93859 32.1037 5.10224 31.9398 5.20453 31.7381L5.99871 30.169L6.79444 31.7386C6.89647 31.9401 7.06012 32.1037 7.26158 32.2057L8.83026 33.0009L7.26132 33.7961C7.05986 33.8981 6.89621 34.0617 6.79418 34.2632L5.99897 35.8318L5.20401 34.2632C5.10198 34.0617 4.93833 33.8981 4.73687 33.7961L3.16793 33.0009L4.73687 32.206Z" fill="#FFAA00"/>
</svg>
