<svg width="106" height="116" viewBox="0 0 106 116" fill="none" xmlns="http://www.w3.org/2000/svg">
<g clip-path="url(#clip0)">
<path d="M47.4883 66.8085C46.4847 66.4533 45.5012 66.0435 44.5423 65.5811C38.4574 62.6318 33.5084 57.1617 31.6561 50.5969C30.0938 45.0722 31.0981 37.6393 37.1105 35.2368C38.5928 34.6506 40.2053 34.4737 41.7794 34.7246C43.4052 34.9835 44.8358 35.8862 46.4728 36.1362C52.262 37.02 56.1576 31.1381 61.7694 31.0031C63.9587 30.9495 66.6 31.59 68.2973 33.0429C70.4822 34.912 71.8403 37.6928 72.9762 40.2783C74.1814 43.0201 75.0629 45.9247 75.3363 48.9153C76.0059 56.1831 72.4674 63.0257 65.9629 66.4113C60.3053 69.3572 53.3578 68.8975 47.4883 66.8085Z" fill="#FFEB80"/>
<path d="M100.295 79.1391H93.8754L92.1488 26.7946C92.0699 24.4058 90.1362 22.5349 87.7464 22.5349C85.3565 22.5349 83.4226 24.406 83.3439 26.7946L81.6173 79.1391H70.3581C69.4987 79.1391 68.8023 79.8358 68.8023 80.6949C68.8023 81.5541 69.4987 82.2508 70.3581 82.2508H100.295C101.725 82.2508 102.888 83.4139 102.888 84.8436V97.7605C102.888 99.1903 101.725 100.354 100.295 100.354H34.9831C34.1237 100.354 33.4272 101.05 33.4272 101.909C33.4272 102.769 34.1237 103.465 34.9831 103.465H100.296C103.441 103.465 106 100.906 106 97.7607V84.8438C106 81.6982 103.441 79.1391 100.295 79.1391ZM86.4539 26.897C86.4771 26.1958 87.0448 25.6464 87.7467 25.6464C88.4483 25.6464 89.016 26.1958 89.0391 26.897L90.7623 79.1391H84.7308L86.4539 26.897Z" fill="black"/>
<path d="M28.76 100.354H5.70454C4.27478 100.354 3.11168 99.1905 3.11168 97.7605V84.8436C3.11168 83.4139 4.27478 82.2508 5.70454 82.2508H64.1354C64.9948 82.2508 65.6912 81.5543 65.6912 80.6949C65.6912 79.8358 64.9948 79.1391 64.1354 79.1391H24.3837L22.6571 26.7946C22.5782 24.4058 20.6445 22.5349 18.2548 22.5349C15.8648 22.5349 13.9309 24.406 13.8523 26.7946L13.0666 50.6133C13.0382 51.4721 13.7115 52.1911 14.5702 52.2194C15.4244 52.2414 16.148 51.5745 16.1764 50.7158L16.9621 26.897C16.9853 26.1958 17.5529 25.6464 18.2548 25.6464C18.9564 25.6464 19.5241 26.1958 19.5473 26.897L21.2704 79.1391H15.2389L15.9712 56.9342C15.9996 56.0754 15.3263 55.3564 14.4676 55.328C13.6098 55.3009 12.8896 55.9729 12.8614 56.8317L12.1256 79.1391H5.70454C2.55911 79.1391 0 81.6982 0 84.8436V97.7605C0 100.906 2.55911 103.465 5.70454 103.465H28.76C29.6193 103.465 30.3158 102.768 30.3158 101.909C30.3158 101.05 29.6191 100.354 28.76 100.354Z" fill="black"/>
<path d="M12.0578 93.0587C11.1984 93.0587 10.502 93.7553 10.502 94.6145C10.502 95.4737 11.1984 96.1703 12.0578 96.1703H17.0278C17.8872 96.1703 18.5836 95.4737 18.5836 94.6145C18.5836 93.7553 17.8872 93.0587 17.0278 93.0587H12.0578Z" fill="black"/>
<path d="M28.7599 93.0587H23.7897C22.9303 93.0587 22.2339 93.7553 22.2339 94.6145C22.2339 95.4737 22.9303 96.1703 23.7897 96.1703H28.7599C29.6193 96.1703 30.3158 95.4737 30.3158 94.6145C30.3156 93.7551 29.6191 93.0587 28.7599 93.0587Z" fill="black"/>
<path d="M35.522 93.0587C34.6626 93.0587 33.9662 93.7553 33.9662 94.6145C33.9662 95.4737 34.6626 96.1703 35.522 96.1703H40.492C41.3514 96.1703 42.0479 95.4737 42.0479 94.6145C42.0479 93.7553 41.3514 93.0587 40.492 93.0587H35.522Z" fill="black"/>
<path d="M47.2544 93.0587C46.3951 93.0587 45.6986 93.7553 45.6986 94.6145C45.6986 95.4737 46.3951 96.1703 47.2544 96.1703H52.2244C53.0838 96.1703 53.7803 95.4737 53.7803 94.6145C53.7803 93.7553 53.0838 93.0587 52.2244 93.0587H47.2544Z" fill="black"/>
<path d="M82.4263 96.1701C83.2857 96.1701 83.9822 95.4735 83.9822 94.6143C83.9822 93.7551 83.2857 93.0584 82.4263 93.0584H77.4563C76.597 93.0584 75.9005 93.7551 75.9005 94.6143C75.9005 95.4735 76.597 96.1701 77.4563 96.1701H82.4263Z" fill="black"/>
<path d="M93.9989 96.1701C94.8582 96.1701 95.5547 95.4735 95.5547 94.6143C95.5547 93.7551 94.8582 93.0584 93.9989 93.0584H89.0289C88.1695 93.0584 87.473 93.7551 87.473 94.6143C87.473 95.4735 88.1695 96.1701 89.0289 96.1701H93.9989Z" fill="black"/>
<path d="M33.9541 48.1219C44.4564 37.6192 61.5454 37.6196 72.0477 48.1219C72.3516 48.4256 72.7497 48.5776 73.1478 48.5776C73.5459 48.5776 73.9441 48.4256 74.248 48.1219C74.8554 47.5145 74.8554 46.5292 74.248 45.9218C62.5323 34.2061 43.4695 34.2059 31.7538 45.9218C31.1464 46.5292 31.1464 47.5145 31.7538 48.1219C32.3614 48.7295 33.3465 48.7295 33.9541 48.1219Z" fill="black"/>
<path d="M68.347 54.0229C68.9544 53.4153 68.9544 52.4302 68.347 51.8228C59.8937 43.3697 46.1446 43.3612 37.6805 51.7969C37.1985 52.2561 37.0497 52.9925 37.3629 53.619C37.6354 54.1641 38.185 54.4794 38.7556 54.4794C38.9893 54.4794 39.2268 54.4266 39.4502 54.3148C39.6055 54.2372 39.744 54.1357 39.862 54.0159C47.1116 46.7739 58.9004 46.7768 66.1467 54.0229C66.7543 54.6303 67.7394 54.6303 68.347 54.0229Z" fill="black"/>
<path d="M61.4566 60.2686C61.8547 60.2686 62.2529 60.1167 62.5568 59.813C63.1642 59.2055 63.1642 58.2203 62.5568 57.6128C60.0043 55.0603 56.6106 53.6546 53.0006 53.6546C49.391 53.6546 45.9972 55.0603 43.4445 57.6128C42.8369 58.2203 42.8369 59.2055 43.4445 59.813C44.0519 60.4206 45.037 60.4206 45.6448 59.813C47.6096 57.8482 50.2221 56.7661 53.0004 56.7661C55.7792 56.7661 58.3913 57.8482 60.356 59.813C60.6604 60.1169 61.0585 60.2686 61.4566 60.2686Z" fill="black"/>
<path d="M48.5171 62.6739C48.2227 62.9652 48.0555 63.3633 48.0555 63.7801C48.0362 65.1587 49.7835 65.8568 50.7204 64.8711C51.3307 64.2652 52.1402 63.9314 53.0008 63.9314C53.8656 63.9314 54.6786 64.2683 55.29 64.8796C56.7971 66.2856 58.8958 64.1852 57.4903 62.6795C55.0165 60.2057 50.993 60.204 48.5171 62.6739Z" fill="black"/>
<path d="M69.5837 21.8136L71.311 22.6892L72.1873 24.4181C72.3842 24.8043 72.6577 25 72.9998 25H73.0017C73.2375 24.9995 73.5697 24.8976 73.8127 24.4162L74.6881 22.6892L76.4143 21.8142C76.8029 21.6179 77 21.3443 77 21.0008C77 20.6571 76.803 20.3833 76.4153 20.1876L74.6881 19.3122L73.8131 17.5859C73.6172 17.198 73.3439 17.0009 73.0009 17H72.9991C72.7635 17 72.4322 17.101 72.1864 17.5828L71.311 19.3124L69.5845 20.1874C69.1022 20.4311 69.0005 20.7633 69 20.999C68.9993 21.3415 69.1952 21.6155 69.5837 21.8136ZM72.1579 20.4707C72.2924 20.4025 72.4015 20.2932 72.4697 20.1587L72.9991 19.1127L73.5296 20.1591C73.5976 20.2934 73.7067 20.4025 73.8411 20.4705L74.8868 21.0006L73.8409 21.5307C73.7066 21.5987 73.5975 21.7078 73.5295 21.8421L72.9993 22.8878L72.4693 21.8421C72.4013 21.7078 72.2922 21.5987 72.1579 21.5307L71.112 21.0006L72.1579 20.4707Z" fill="#FFAA00"/>
</g>
<path d="M51.4999 5.88953C50.775 5.88953 50.1873 6.47723 50.1873 7.20182V11.1393C50.1873 11.8642 50.775 12.4516 51.4999 12.4516C52.2247 12.4516 52.8124 11.8639 52.8124 11.1393V7.20182C52.8124 6.47692 52.2247 5.88953 51.4999 5.88953Z" fill="#FFAA00"/>
<path d="M51.4999 20.3262C50.775 20.3262 50.1873 20.9139 50.1873 21.6385V25.576C50.1873 26.3009 50.775 26.8883 51.4999 26.8883C52.2247 26.8883 52.8124 26.3006 52.8124 25.576V21.6385C52.8124 20.9139 52.2247 20.3262 51.4999 20.3262Z" fill="#FFAA00"/>
<path d="M42.3129 17.7014H46.2501C46.975 17.7014 47.5627 17.1137 47.5627 16.3888C47.5627 15.6639 46.975 15.0765 46.2501 15.0765H42.3126C41.5877 15.0765 41 15.6642 41 16.3888C41.0003 17.1137 41.588 17.7014 42.3129 17.7014Z" fill="#FFAA00"/>
<path d="M60.6871 15.0765H56.75C56.0251 15.0765 55.4374 15.6642 55.4374 16.3888C55.4374 17.1137 56.0251 17.7014 56.75 17.7014H60.6875C61.4123 17.7014 62.0001 17.1137 62.0001 16.3888C61.9997 15.6642 61.412 15.0765 60.6871 15.0765Z" fill="#FFAA00"/>
<path d="M51.4999 17.7017C52.2248 17.7017 52.8124 17.114 52.8124 16.3891C52.8124 15.6642 52.2248 15.0765 51.4999 15.0765C50.7749 15.0765 50.1873 15.6642 50.1873 16.3891C50.1873 17.114 50.7749 17.7017 51.4999 17.7017Z" fill="#FFAA00"/>
<path d="M27.8755 7.22045L30.4665 8.53374L31.7809 11.1272C32.0763 11.7064 32.4865 12 32.9997 12H33.0026C33.3563 11.9992 33.8545 11.8465 34.2191 11.1243L35.5322 8.53374L38.1214 7.22123C38.7043 6.92683 39 6.51643 39 6.00117C39 5.48564 38.7045 5.07498 38.123 4.78136L35.5322 3.46833L34.2196 0.878796C33.9257 0.296985 33.5158 0.00129464 33.0013 0C33.0005 0 32.9995 0 32.9987 0C32.6452 0 32.1483 0.151475 31.7796 0.874141L30.4665 3.46859L27.8768 4.7811C27.1533 5.1467 27.0008 5.64488 27 5.99857C26.999 6.51229 27.2929 6.9232 27.8755 7.22045ZM31.7369 5.206C31.9386 5.10372 32.1022 4.93982 32.2045 4.73812L32.9987 3.16901L33.7944 4.73863C33.8965 4.94008 34.0601 5.10372 34.2616 5.20574L35.8303 6.00091L34.2613 6.79608C34.0599 6.89809 33.8962 7.06173 33.7942 7.26318L32.999 8.83176L32.204 7.26318C32.102 7.06173 31.9383 6.89809 31.7369 6.79608L30.1679 6.00091L31.7369 5.206Z" fill="#FFAA00"/>
<defs>
<clipPath id="clip0">
<rect width="106" height="106" fill="white" transform="translate(0 10)"/>
</clipPath>
</defs>
</svg>
