<svg width="118" height="162" viewBox="0 0 118 162" fill="none" xmlns="http://www.w3.org/2000/svg">
<path d="M15.1317 67.7325C15.151 101.252 16.0976 107.814 24.5396 115.318C27.8429 118.262 33.9281 124.362 51.4882 127.403C56.762 128.307 63.0596 128.961 70.6323 129.154C73.7232 129.231 76.5629 129.115 79.1515 128.846C81.3345 128.615 83.3242 128.249 85.1787 127.807C104.477 122.996 105.926 106.525 97.4843 92.6511C95.2434 88.9759 92.6934 85.6085 90.0082 82.472C85.8742 77.623 81.4504 73.2935 77.4322 69.2719C73.7232 65.5581 70.3812 62.0945 67.9471 58.6694C66.9232 57.2263 66.0539 55.8023 65.3971 54.3592C65.2426 54.0128 65.088 53.6857 64.9335 53.3393C64.4119 52.2425 63.871 51.2035 63.3494 50.2029C62.3449 48.3171 61.3017 46.6046 60.3165 45.0652C59.5244 43.8337 58.7517 42.7177 58.037 41.7363C55.5643 38.3497 50.9086 33.4237 39.9746 33.2313C28.8668 33.0388 15.1317 38.292 15.1317 67.7325Z" fill="#FFD800" fill-opacity="0.5"/>
<path d="M22.0625 87.0625C21.1354 87.0625 20.2291 87.3374 19.4583 87.8525C18.6874 88.3676 18.0866 89.0996 17.7318 89.9562C17.377 90.8127 17.2842 91.7552 17.4651 92.6645C17.6459 93.5738 18.0924 94.409 18.7479 95.0646C19.4035 95.7201 20.2387 96.1666 21.148 96.3474C22.0573 96.5283 22.9998 96.4355 23.8563 96.0807C24.7129 95.7259 25.4449 95.1251 25.96 94.3542C26.4751 93.5834 26.75 92.6771 26.75 91.75C26.7486 90.5072 26.2543 89.3158 25.3755 88.437C24.4967 87.5582 23.3053 87.0639 22.0625 87.0625ZM22.0625 93.3125C21.7535 93.3125 21.4514 93.2209 21.1944 93.0492C20.9375 92.8775 20.7372 92.6335 20.6189 92.3479C20.5007 92.0624 20.4697 91.7483 20.53 91.4452C20.5903 91.1421 20.7391 90.8637 20.9576 90.6451C21.1762 90.4266 21.4546 90.2778 21.7577 90.2175C22.0608 90.1572 22.3749 90.1882 22.6604 90.3064C22.946 90.4247 23.19 90.625 23.3617 90.8819C23.5334 91.1389 23.625 91.441 23.625 91.75C23.6245 92.1643 23.4598 92.5614 23.1668 92.8543C22.8739 93.1473 22.4768 93.312 22.0625 93.3125Z" fill="black"/>
<path d="M81.4374 87.0625C80.5103 87.0625 79.604 87.3374 78.8331 87.8525C78.0623 88.3676 77.4615 89.0996 77.1067 89.9562C76.7519 90.8127 76.6591 91.7552 76.8399 92.6645C77.0208 93.5738 77.4673 94.409 78.1228 95.0646C78.7784 95.7201 79.6136 96.1666 80.5229 96.3474C81.4322 96.5283 82.3747 96.4355 83.2312 96.0807C84.0877 95.7259 84.8198 95.1251 85.3349 94.3542C85.85 93.5834 86.1249 92.6771 86.1249 91.75C86.1235 90.5072 85.6292 89.3158 84.7504 88.437C83.8716 87.5582 82.6802 87.0639 81.4374 87.0625ZM81.4374 93.3125C81.1283 93.3125 80.8263 93.2209 80.5693 93.0492C80.3124 92.8775 80.1121 92.6335 79.9938 92.3479C79.8756 92.0624 79.8446 91.7483 79.9049 91.4452C79.9652 91.1421 80.114 90.8637 80.3325 90.6451C80.551 90.4266 80.8295 90.2778 81.1326 90.2175C81.4356 90.1572 81.7498 90.1882 82.0353 90.3064C82.3208 90.4247 82.5649 90.625 82.7366 90.8819C82.9082 91.1389 82.9999 91.441 82.9999 91.75C82.9994 92.1643 82.8347 92.5614 82.5417 92.8543C82.2488 93.1473 81.8516 93.312 81.4374 93.3125Z" fill="black"/>
<path d="M92.3749 91.75C92.3749 90.298 92.0858 88.8605 91.5245 87.5214C90.9631 86.1823 90.1407 84.9684 89.1053 83.9504C88.0698 82.9325 86.8421 82.1309 85.4936 81.5924C84.1451 81.0539 82.7029 80.7893 81.2511 80.8141C75.323 80.9131 70.4999 85.8881 70.4999 91.9043V97.1533C66.2197 95.9883 59.9771 94.875 51.75 94.875C43.5228 94.875 37.2802 95.9883 32.9999 97.1533V91.75C33 90.2779 32.7028 88.821 32.1263 87.4665C31.5498 86.112 30.7058 84.8878 29.6448 83.8673C28.5839 82.8468 27.3279 82.0509 25.952 81.5274C24.5762 81.0039 23.1088 80.7636 21.6378 80.8207C18.889 80.9366 16.2838 82.0805 14.3384 84.0259C12.3929 85.9714 11.249 88.5765 11.1332 91.3254C11.0289 94.0267 11.9281 96.6711 13.6577 98.7488C15.3872 100.826 17.8245 102.19 20.4999 102.578V108.938C20.5018 110.595 21.1609 112.183 22.3326 113.355C23.5043 114.527 25.0929 115.186 26.7499 115.188V119.875C26.7499 120.289 26.9146 120.687 27.2076 120.98C27.5006 121.273 27.898 121.438 28.3124 121.438H32.9999C33.2901 121.438 33.5745 121.357 33.8213 121.204C34.0682 121.052 34.2676 120.833 34.3974 120.574L37.0906 115.188H66.4093L69.1025 120.574C69.2323 120.833 69.4317 121.052 69.6785 121.204C69.9254 121.357 70.2098 121.438 70.4999 121.438H75.1874C75.6018 121.438 75.9993 121.273 76.2923 120.98C76.5853 120.687 76.7499 120.289 76.7499 119.875V115.188C78.407 115.186 79.9956 114.527 81.1673 113.355C82.339 112.183 82.9981 110.595 82.9999 108.938V102.576C85.6018 102.197 87.9804 100.895 89.7016 98.9073C91.4228 96.9197 92.3717 94.3793 92.3749 91.75ZM32.0343 118.313H29.8749V115.188H33.5968L32.0343 118.313ZM73.6249 118.313H71.4656L69.9031 115.188H73.6249V118.313ZM81.4374 99.5625C81.023 99.5625 80.6256 99.7271 80.3326 100.02C80.0396 100.313 79.8749 100.711 79.8749 101.125V108.938C79.874 109.766 79.5444 110.56 78.9586 111.146C78.3727 111.732 77.5784 112.062 76.7499 112.063H26.7499C25.9214 112.062 25.1272 111.732 24.5413 111.146C23.9555 110.56 23.6259 109.766 23.6249 108.938V101.125C23.6249 100.711 23.4603 100.313 23.1673 100.02C22.8743 99.7271 22.4769 99.5625 22.0624 99.5625C21.0107 99.5625 19.9699 99.3502 19.0022 98.9382C18.0345 98.5263 17.16 97.9232 16.431 97.1651C15.702 96.407 15.1336 95.5096 14.7598 94.5265C14.3861 93.5435 14.2146 92.4951 14.2558 91.4442C14.3386 89.4816 15.1554 87.6217 16.5443 86.2327C17.9333 84.8437 19.7932 84.0269 21.7558 83.9442C22.8067 83.9029 23.8551 84.0742 24.8382 84.4479C25.8213 84.8216 26.7188 85.3899 27.477 86.1188C28.2352 86.8477 28.8383 87.7222 29.2504 88.6898C29.6624 89.6574 29.8749 90.6983 29.8749 91.75V98.1172C27.4119 98.9766 26.1175 99.6879 25.9839 99.7631L27.5126 102.489C27.5933 102.444 35.772 98 51.75 98C67.7279 98 75.9066 102.444 75.9839 102.487L77.516 99.7631C77.3824 99.6879 76.088 98.9758 73.6249 98.1172V91.9043C73.6249 87.5828 77.0695 84.0094 81.3033 83.9387C82.3348 83.9208 83.3597 84.1074 84.3187 84.4878C85.2777 84.8681 86.1519 85.4346 86.8908 86.1546C87.6297 86.8747 88.2187 87.7339 88.6238 88.6827C89.0288 89.6316 89.2419 90.6513 89.2508 91.6829C89.2596 92.7146 89.0641 93.7378 88.6754 94.6934C88.2867 95.6491 87.7125 96.5183 86.9861 97.2509C86.2597 97.9835 85.3954 98.565 84.443 98.9617C83.4906 99.3585 82.4691 99.5627 81.4374 99.5625Z" fill="black"/>
<path d="M23.625 69.875C23.626 69.0465 23.9555 68.2522 24.5414 67.6664C25.1272 67.0805 25.9215 66.751 26.75 66.75H76.75C77.5785 66.751 78.3728 67.0805 78.9586 67.6664C79.5445 68.2522 79.874 69.0465 79.875 69.875V77.6875H83V69.875C82.9981 68.218 82.3391 66.6293 81.1674 65.4576C79.9957 64.2859 78.407 63.6269 76.75 63.625H26.75C25.093 63.6269 23.5043 64.2859 22.3326 65.4576C21.1609 66.6293 20.5019 68.218 20.5 69.875V77.6875H23.625V69.875Z" fill="black"/>
<path d="M42.375 73H45.5V76.125H42.375V73Z" fill="black"/>
<path d="M50.1875 80.8125H53.3125V83.9375H50.1875V80.8125Z" fill="black"/>
<path d="M34.5625 80.8125H37.6875V83.9375H34.5625V80.8125Z" fill="black"/>
<path d="M42.375 88.625H45.5V91.75H42.375V88.625Z" fill="black"/>
<path d="M58 73H61.125V76.125H58V73Z" fill="black"/>
<path d="M65.8124 80.8125H68.9374V83.9375H65.8124V80.8125Z" fill="black"/>
<path d="M58 88.625H61.125V91.75H58V88.625Z" fill="black"/>
<path d="M98.625 24.5625H54.875C53.218 24.5644 51.6293 25.2234 50.4576 26.3951C49.2859 27.5668 48.6269 29.1555 48.625 30.8125V32.375H51.75V30.8125C51.751 29.984 52.0805 29.1897 52.6664 28.6039C53.2522 28.018 54.0465 27.6885 54.875 27.6875H75.1875V60.5H78.3125V27.6875H98.625C99.4535 27.6885 100.248 28.018 100.834 28.6039C101.419 29.1897 101.749 29.984 101.75 30.8125V108.938C101.749 109.766 101.419 110.56 100.834 111.146C100.248 111.732 99.4535 112.062 98.625 112.062H84.5625V115.188H88.2844L90.9775 120.574C91.1073 120.833 91.3068 121.052 91.5536 121.204C91.8004 121.357 92.0848 121.437 92.375 121.438H97.0625C97.4769 121.438 97.8743 121.273 98.1674 120.98C98.4604 120.687 98.625 120.289 98.625 119.875V115.188C100.282 115.186 101.871 114.527 103.042 113.355C104.214 112.183 104.873 110.595 104.875 108.938V30.8125C104.873 29.1555 104.214 27.5668 103.042 26.3951C101.871 25.2234 100.282 24.5644 98.625 24.5625ZM95.5 118.312H93.3406L91.7781 115.188H95.5V118.312Z" fill="black"/>
<path d="M22.0624 57.375H36.1249V60.5H39.2499V57.375H53.3124C53.5286 57.375 53.7423 57.3301 53.9403 57.2433C54.1382 57.1564 54.3159 57.0295 54.4623 56.8704C54.6086 56.7114 54.7203 56.5237 54.7904 56.3192C54.8605 56.1148 54.8874 55.898 54.8695 55.6826L53.307 36.9326C53.2744 36.5421 53.0962 36.178 52.8078 35.9127C52.5194 35.6473 52.1418 35.5 51.7499 35.5H39.2499V32.375H36.1249V35.5H23.6249C23.233 35.5 22.8554 35.6473 22.567 35.9127C22.2786 36.178 22.1005 36.5421 22.0679 36.9326L20.5054 55.6826C20.4874 55.898 20.5144 56.1148 20.5844 56.3192C20.6545 56.5237 20.7663 56.7114 20.9126 56.8704C21.059 57.0295 21.2367 57.1564 21.4346 57.2433C21.6325 57.3301 21.8463 57.375 22.0624 57.375ZM25.0626 38.625H50.3122L51.6144 54.25H23.7605L25.0626 38.625Z" fill="black"/>
<path d="M31.0214 47.4239L34.0442 48.956L35.5777 51.9817C35.9224 52.6574 36.4009 53 36.9997 53H37.003C37.4157 52.9991 37.9969 52.8209 38.4223 51.9784L39.9543 48.956L42.975 47.4248C43.655 47.0813 44 46.6025 44 46.0014C44 45.3999 43.6553 44.9208 42.9768 44.5783L39.9543 43.0464L38.4229 40.0253C38.08 39.3465 37.6018 39.0015 37.0015 39C37.0006 39 36.9994 39 36.9985 39C36.5861 39 36.0064 39.1767 35.5762 40.0198L34.0442 43.0467L31.0229 44.5779C30.1788 45.0045 30.0009 45.5857 30 45.9983C29.9988 46.5977 30.3417 47.0771 31.0214 47.4239ZM35.5264 45.0737C35.7617 44.9543 35.9526 44.7631 36.0719 44.5278L36.9985 42.6972L37.9269 44.5284C38.0459 44.7634 38.2368 44.9543 38.4718 45.0734L40.302 46.0011L38.4715 46.9288C38.2365 47.0478 38.0456 47.2387 37.9265 47.4737L36.9988 49.3037L36.0713 47.4737C35.9523 47.2387 35.7614 47.0478 35.5264 46.9288L33.6959 46.0011L35.5264 45.0737Z" fill="#FFAA00"/>
<path d="M14.9454 12C13.9136 12 13.0771 12.8365 13.0771 13.8678V19.4722C13.0771 20.5039 13.9136 21.34 14.9454 21.34C15.9772 21.34 16.8137 20.5035 16.8137 19.4722V13.8678C16.8137 12.8361 15.9772 12 14.9454 12Z" fill="#FFAA00"/>
<path d="M14.9454 32.5483C13.9136 32.5483 13.0771 33.3848 13.0771 34.4161V40.0205C13.0771 41.0522 13.9136 41.8883 14.9454 41.8883C15.9772 41.8883 16.8137 41.0518 16.8137 40.0205V34.4161C16.8137 33.3848 15.9772 32.5483 14.9454 32.5483Z" fill="#FFAA00"/>
<path d="M1.86919 28.8122H7.47311C8.50488 28.8122 9.34138 27.9757 9.34138 26.9439C9.34138 25.9122 8.50488 25.0761 7.47311 25.0761H1.86875C0.836986 25.0761 0.000488281 25.9126 0.000488281 26.9439C0.00092808 27.9757 0.837426 28.8122 1.86919 28.8122Z" fill="#FFAA00"/>
<path d="M28.0217 25.0761H22.4178C21.3861 25.0761 20.5496 25.9126 20.5496 26.9439C20.5496 27.9757 21.3861 28.8122 22.4178 28.8122H28.0222C29.054 28.8122 29.8905 27.9757 29.8905 26.9439C29.89 25.9126 29.0535 25.0761 28.0217 25.0761Z" fill="#FFAA00"/>
<path d="M14.9454 28.8126C15.9772 28.8126 16.8137 27.9762 16.8137 26.9444C16.8137 25.9126 15.9772 25.0761 14.9454 25.0761C13.9136 25.0761 13.0771 25.9126 13.0771 26.9444C13.0771 27.9762 13.9136 28.8126 14.9454 28.8126Z" fill="#FFAA00"/>
</svg>
