<svg width="98" height="138" viewBox="0 0 98 138" fill="none" xmlns="http://www.w3.org/2000/svg">
<path d="M87.6617 57.6981C87.6452 86.252 86.8386 91.8415 79.6445 98.2342C76.8295 100.742 71.6439 105.938 56.6796 108.528C52.1854 109.298 46.8187 109.856 40.3655 110.02C37.7316 110.085 35.3116 109.987 33.1057 109.757C31.2454 109.561 29.5498 109.249 27.9694 108.872C11.5236 104.774 10.2889 90.7433 17.4829 78.925C19.3926 75.7943 21.5656 72.9258 23.8538 70.2539C27.3768 66.1233 31.1466 62.4352 34.5708 59.0094C37.7316 55.8458 40.5795 52.8953 42.6538 49.9777C43.5263 48.7483 44.2671 47.5353 44.8268 46.306C44.9585 46.0109 45.0902 45.7323 45.2219 45.4372C45.6664 44.5029 46.1273 43.6178 46.5718 42.7654C47.4278 41.159 48.3168 39.7002 49.1564 38.3889C49.8313 37.3398 50.4898 36.3891 51.0989 35.5531C53.2061 32.6682 57.1735 28.472 66.4912 28.3081C75.957 28.1442 87.6617 32.6191 87.6617 57.6981Z" fill="#FFD800" fill-opacity="0.5"/>
<path d="M57.9443 17.8906C57.043 17.8906 56.3123 18.6214 56.3123 19.5223V24.4181C56.3123 25.3194 57.043 26.0497 57.9443 26.0497C58.8456 26.0497 59.5764 25.319 59.5764 24.4181V19.5223C59.5764 18.621 58.8456 17.8906 57.9443 17.8906Z" fill="#FFAA00"/>
<path d="M57.9443 35.8409C57.043 35.8409 56.3123 36.5716 56.3123 37.4725V42.3683C56.3123 43.2696 57.043 44 57.9443 44C58.8456 44 59.5764 43.2693 59.5764 42.3683V37.4725C59.5764 36.5716 58.8456 35.8409 57.9443 35.8409Z" fill="#FFAA00"/>
<path d="M46.5215 32.5772H51.4169C52.3182 32.5772 53.0489 31.8465 53.0489 30.9451C53.0489 30.0438 52.3182 29.3135 51.4169 29.3135H46.5211C45.6198 29.3135 44.889 30.0442 44.889 30.9451C44.8894 31.8465 45.6202 32.5772 46.5215 32.5772Z" fill="#FFAA00"/>
<path d="M69.3675 29.3135H64.4721C63.5708 29.3135 62.8401 30.0442 62.8401 30.9451C62.8401 31.8465 63.5708 32.5772 64.4721 32.5772H69.3679C70.2692 32.5772 71 31.8465 71 30.9451C70.9996 30.0442 70.2688 29.3135 69.3675 29.3135Z" fill="#FFAA00"/>
<path d="M57.9443 32.5776C58.8457 32.5776 59.5764 31.8469 59.5764 30.9455C59.5764 30.0442 58.8457 29.3135 57.9443 29.3135C57.043 29.3135 56.3123 30.0442 56.3123 30.9455C56.3123 31.8469 57.043 32.5776 57.9443 32.5776Z" fill="#FFAA00"/>
<path d="M30.8025 24.6187L33.1776 25.8226L34.3825 28.1999C34.6533 28.7308 35.0293 29 35.4998 29H35.5024C35.8266 28.9993 36.2833 28.8592 36.6175 28.1973L37.8212 25.8226L40.1946 24.6195C40.7289 24.3496 41 23.9734 41 23.5011C41 23.0285 40.7292 22.6521 40.196 22.3829L37.8212 21.1793L36.618 18.8056C36.3486 18.2722 35.9728 18.0012 35.5012 18C35.5005 18 35.4995 18 35.4988 18C35.1748 18 34.7193 18.1389 34.3813 18.8013L33.1776 21.1795L30.8037 22.3827C30.1405 22.7178 30.0007 23.1745 30 23.4987C29.9991 23.9696 30.2685 24.3463 30.8025 24.6187ZM34.3421 22.7722C34.527 22.6784 34.6771 22.5282 34.7708 22.3433L35.4988 20.9049L36.2282 22.3437C36.3218 22.5284 36.4718 22.6784 36.6564 22.7719L38.0944 23.5008L36.6562 24.2297C36.4715 24.3233 36.3215 24.4733 36.228 24.6579L35.4991 26.0958L34.7703 24.6579C34.6768 24.4733 34.5268 24.3233 34.3421 24.2297L32.9039 23.5008L34.3421 22.7722Z" fill="#FFAA00"/>
<g clip-path="url(#clip0)">
<path d="M94.067 60.4291H96.7402C97.4359 60.4291 98 59.8651 98 59.1694C98 58.4736 97.4359 57.9096 96.7402 57.9096H91.2676V54.8363C92.8311 54.309 93.9605 52.8297 93.9605 51.0906C93.9605 48.911 92.1872 47.1379 90.0078 47.1379H76.5433C75.8476 47.1379 75.2835 47.702 75.2835 48.3977V52.7308C73.7201 53.258 72.5905 54.7373 72.5905 56.4765C72.5905 56.9819 72.6869 57.465 72.8606 57.9096H69.7243V52.437C69.7243 49.515 67.3472 47.1379 64.4252 47.1379H45.5747C42.6527 47.1379 40.2757 49.5152 40.2757 52.437V57.9096H33.5626L34.7036 49.9224C34.7552 49.5607 34.6475 49.1947 34.4082 48.9187C34.1688 48.6429 33.8216 48.4844 33.4565 48.4844H33.3698V43.0118C33.3698 42.3161 32.8057 41.752 32.11 41.752C31.4143 41.752 30.8503 42.3161 30.8503 43.0118V48.4844H27.984V45.7047C27.984 45.0089 27.42 44.4449 26.7243 44.4449C26.0285 44.4449 25.4645 45.0089 25.4645 45.7047V48.4842H25.3778C25.0127 48.4842 24.6655 48.6428 24.4261 48.9186C24.1869 49.1945 24.0791 49.5605 24.1307 49.9222L25.2717 57.9094H13.2597C12.564 57.9094 12 58.4735 12 59.1692C12 59.8649 12.564 60.429 13.2597 60.429H15.9331L12.004 108.886C11.9756 109.237 12.095 109.584 12.3335 109.842C12.5719 110.101 12.9078 110.248 13.2596 110.248H17.2989C17.936 110.248 18.4728 109.772 18.5494 109.14L23.8009 65.8147H26.7246C27.4203 65.8147 27.9844 65.2507 27.9844 64.555C27.9844 63.8592 27.4203 63.2952 26.7246 63.2952H18.2284L18.4609 60.429H91.539L91.7715 63.2952H32.11C31.4143 63.2952 30.8503 63.8592 30.8503 64.555C30.8503 65.2507 31.4143 65.8147 32.11 65.8147H40.2757V67.2478C40.2757 68.987 41.4051 70.4661 42.9685 70.9935V74.0669H42.8819C39.9599 74.0669 37.5828 76.4441 37.5828 79.3659V80.7124C37.5828 81.4081 38.1468 81.9721 38.8425 81.9721H40.2757V108.988C40.2757 109.684 40.8397 110.248 41.5354 110.248C42.2311 110.248 42.7952 109.684 42.7952 108.988V90.0513H67.2047V108.988C67.2047 109.684 67.7688 110.248 68.4645 110.248C69.1602 110.248 69.7243 109.684 69.7243 108.988V81.9725H71.1574C71.8531 81.9725 72.4171 81.4084 72.4171 80.7127V79.3663C72.4171 76.4443 70.04 74.0672 67.1181 74.0672H67.0314V70.9937C68.5948 70.4664 69.7243 68.9871 69.7243 67.248V65.8151H86.1986L91.4502 109.14C91.5268 109.773 92.0636 110.248 92.7007 110.248H96.7402C97.0919 110.248 97.4279 110.101 97.6662 109.843C97.9047 109.584 98.0241 109.237 97.9958 108.887L94.067 60.4291ZM21.2633 65.8149L16.1827 107.728H14.6256L18.024 65.8149H21.2633ZM77.8031 49.6575H90.0078C90.7981 49.6575 91.4409 50.3004 91.4409 51.0906C91.4409 51.8807 90.798 52.5237 90.0078 52.5237H77.8031V49.6575ZM42.7952 52.437C42.7952 50.9043 44.042 49.6575 45.5747 49.6575L64.4252 49.6573C65.9579 49.6573 67.2047 50.9043 67.2047 52.4368V57.9094H42.7952V52.437ZM27.8169 57.9096L26.8303 51.0039H32.004L31.0174 57.9096H27.8169ZM76.5433 57.9096C75.753 57.9096 75.1102 57.2666 75.1102 56.4765C75.1102 55.6864 75.7532 55.0434 76.5433 55.0434H88.7481V57.9096H76.5433ZM69.8976 79.3661V79.4528H65.7713C65.0756 79.4528 64.5115 80.0168 64.5115 80.7125C64.5115 81.4083 65.0756 81.9723 65.7713 81.9723H67.2047V87.5316H42.7952V81.9723H60.3857C61.0814 81.9723 61.6455 81.4083 61.6455 80.7125C61.6455 80.0168 61.0814 79.4528 60.3857 79.4528H40.1023V79.3661C40.1023 77.8334 41.3491 76.5866 42.8819 76.5866H67.1181C68.6508 76.5866 69.8976 77.8336 69.8976 79.3661ZM45.4881 74.067V71.2008L64.5119 71.2006V74.067H45.4881ZM67.2047 67.2478C67.2047 68.0381 66.5618 68.6809 65.7716 68.6809L44.2283 68.6811C43.438 68.6811 42.7952 68.0381 42.7952 67.248V65.8149H67.2047V67.2478ZM93.8172 107.728L88.7367 65.8149H91.9758L95.3741 107.728H93.8172Z" fill="black"/>
</g>
<defs>
<clipPath id="clip0">
<rect width="86" height="86" fill="white" transform="translate(12 33)"/>
</clipPath>
</defs>
</svg>
