<svg width="46" height="45" viewBox="0 0 46 45" fill="none" xmlns="http://www.w3.org/2000/svg">
<path d="M22.5288 45C10.1064 45 0 34.9065 0 22.5C0 10.0935 10.1064 0 22.5288 0C34.9512 0 45.0576 10.0935 45.0576 22.5C45.0576 34.9065 34.9512 45 22.5288 45ZM22.5288 1.68224C10.9486 1.68224 1.6844 10.9346 1.6844 22.5C1.6844 34.0654 10.9486 43.3178 22.5288 43.3178C34.109 43.3178 43.3732 34.0654 43.3732 22.5C43.3732 11.1449 34.109 1.68224 22.5288 1.68224Z" fill="#FFAA00"/>
<path d="M19.1599 35.5372H24.4236V22.2895H28.2135L28.6346 17.8736H24.6342C24.6342 17.8736 24.6342 16.1914 24.6342 15.3503C24.6342 14.2989 24.8447 13.8783 25.8975 13.8783C26.7397 13.8783 28.8451 13.8783 28.8451 13.8783V9.4624C28.8451 9.4624 25.8975 9.4624 25.2658 9.4624C21.2654 9.4624 19.581 11.1446 19.581 14.5091C19.581 17.4531 19.581 18.0839 19.581 18.0839H16.4227V22.4998H19.1599V35.5372Z" fill="#FFAA00"/>
</svg>
