<svg width="46" height="45" viewBox="0 0 46 45" fill="none" xmlns="http://www.w3.org/2000/svg">
<path d="M22.6985 45C10.2761 45 0.169678 34.9065 0.169678 22.5C0.169678 10.0935 10.2761 0 22.6985 0C35.1209 0 45.2273 10.0935 45.2273 22.5C45.2273 34.9065 35.1209 45 22.6985 45ZM22.6985 1.68224C11.1182 1.68224 1.85407 10.9346 1.85407 22.5C1.85407 34.0654 11.1182 43.3178 22.6985 43.3178C34.2787 43.3178 43.5429 34.0654 43.5429 22.5C43.5429 11.1449 34.2787 1.68224 22.6985 1.68224Z" fill="#FFAA00"/>
<path d="M22.6983 12.8274C25.8566 12.8274 26.2777 12.8274 27.541 12.8274C28.8043 12.8274 29.4359 13.0377 29.6465 13.248C30.2781 13.4583 30.6992 13.6685 30.9098 14.0891C31.3309 14.5097 31.5414 14.9302 31.752 15.3508C31.9625 15.7713 32.1731 16.4022 32.1731 17.4536C32.1731 18.7153 32.1731 19.1358 32.1731 22.29C32.1731 25.4442 32.1731 25.8648 32.1731 27.1265C32.1731 28.3882 31.9625 29.019 31.752 29.2293C31.5414 29.8601 31.3309 30.2807 30.9098 30.491C30.4887 30.9115 30.0676 31.1218 29.6465 31.3321C29.2254 31.5424 28.5937 31.7526 27.541 31.7526C26.2777 31.7526 25.8566 31.7526 22.6983 31.7526C19.5401 31.7526 19.119 31.7526 17.8557 31.7526C16.5924 31.7526 15.9608 31.5424 15.7502 31.3321C15.1186 31.1218 14.6975 30.9115 14.4869 30.491C14.0658 30.0704 13.8553 29.6498 13.6447 29.2293C13.4342 28.8087 13.2236 28.1779 13.2236 27.1265C13.2236 25.8648 13.2236 25.4442 13.2236 22.29C13.2236 19.1358 13.2236 18.7153 13.2236 17.4536C13.2236 16.1919 13.4342 15.5611 13.6447 15.3508C13.8553 14.7199 14.0658 14.2994 14.4869 14.0891C14.908 13.6685 15.3291 13.4583 15.7502 13.248C16.1713 13.0377 16.803 12.8274 17.8557 12.8274C19.119 12.8274 19.5401 12.8274 22.6983 12.8274ZM22.6983 10.7246C19.5401 10.7246 19.119 10.7246 17.8557 10.7246C16.5924 10.7246 15.7502 10.9349 14.908 11.3555C14.0658 11.5657 13.4342 11.9863 12.8025 12.8274C12.1709 13.4583 11.7498 14.0891 11.3287 14.9302C11.1181 15.7713 10.9076 16.6125 10.697 17.8741C10.697 19.1358 10.697 19.5564 10.697 22.7106C10.697 25.8648 10.697 26.2854 10.697 27.547C10.697 28.8087 10.9076 29.6498 11.3287 30.491C11.5392 31.3321 11.9603 31.9629 12.8025 32.5938C13.4342 33.2246 14.0658 33.6452 14.908 34.0657C15.7502 34.276 16.5924 34.4863 17.8557 34.6966C19.119 34.6966 19.5401 34.6966 22.6983 34.6966C25.8566 34.6966 26.2777 34.6966 27.541 34.6966C28.8043 34.6966 29.6465 34.4863 30.4887 34.0657C31.3309 33.8554 31.9625 33.4349 32.5942 32.5938C33.2258 31.9629 33.6469 31.3321 34.068 30.491C34.2786 29.6498 34.4891 28.8087 34.6997 27.547C34.6997 26.2854 34.6997 25.8648 34.6997 22.7106C34.6997 19.5564 34.6997 19.1358 34.6997 17.8741C34.6997 16.6125 34.4891 15.7713 34.068 14.9302C33.8575 14.0891 33.4364 13.4583 32.5942 12.8274C31.9625 12.1966 31.3309 11.776 30.4887 11.3555C29.6465 11.1452 28.8043 10.9349 27.541 10.7246C26.2777 10.7246 25.8566 10.7246 22.6983 10.7246Z" fill="#FFAA00"/>
<path d="M22.6975 16.4019C19.3287 16.4019 16.5916 19.1355 16.5916 22.5C16.5916 25.8645 19.3287 28.5981 22.6975 28.5981C26.0663 28.5981 28.8034 25.8645 28.8034 22.5C28.8034 19.1355 26.0663 16.4019 22.6975 16.4019ZM22.6975 26.4953C20.592 26.4953 18.697 24.8131 18.697 22.5C18.697 20.3972 20.3814 18.5047 22.6975 18.5047C24.803 18.5047 26.6979 20.1869 26.6979 22.5C26.6979 24.8131 24.803 26.4953 22.6975 26.4953Z" fill="#FFAA00"/>
<path d="M30.4885 16.1917C30.4885 17.0328 29.8568 17.6637 29.0146 17.6637C28.1724 17.6637 27.5408 17.0328 27.5408 16.1917C27.5408 15.3506 28.1724 14.7197 29.0146 14.7197C29.8568 14.7197 30.4885 15.3506 30.4885 16.1917Z" fill="#FFAA00"/>
</svg>
