<svg width="97" height="97" viewBox="0 0 97 97" fill="none" xmlns="http://www.w3.org/2000/svg">
<g clip-path="url(#clip0)">
<path d="M41.3214 71.7812C40.0034 71.3146 38.7118 70.7764 37.4525 70.1691C29.4611 66.2958 22.9617 59.112 20.529 50.4905C18.4773 43.2348 19.7962 33.4732 27.6923 30.318C29.6389 29.5482 31.7567 29.3159 33.8239 29.6453C35.9591 29.9853 37.8379 31.1709 39.9878 31.4992C47.5907 32.6598 52.7068 24.9352 60.0767 24.7579C62.952 24.6876 66.4208 25.5288 68.6499 27.4368C71.5193 29.8915 73.3028 33.5435 74.7947 36.9391C76.3774 40.5398 77.5351 44.3545 77.8942 48.282C78.7735 57.8267 74.1264 66.8131 65.584 71.2594C58.154 75.1283 49.0298 74.5246 41.3214 71.7812Z" fill="#FFEB80"/>
<path d="M85.4434 52.2154C86.2283 52.2154 86.8643 51.5794 86.8643 50.7945V5.91946C86.8643 2.65556 84.2087 0 80.9448 0H16.0552C12.7913 0 10.1357 2.65556 10.1357 5.91946V82.3183C10.1357 85.0927 12.0543 87.4273 14.6343 88.0654V95.5791C14.6343 96.364 15.2703 97 16.0552 97H21.4018C21.9682 97 22.4807 96.6635 22.7058 96.1435L26.1269 88.2378H31.0663C31.8512 88.2378 32.4872 87.6018 32.4872 86.8169C32.4872 86.032 31.8512 85.396 31.0663 85.396H16.0552C14.3581 85.396 12.9775 84.0154 12.9775 82.3183V79.9502H84.0225V82.3183C84.0225 84.0154 82.6419 85.396 80.9448 85.396H37.7398C36.9549 85.396 36.3189 86.032 36.3189 86.8169C36.3189 87.6018 36.9549 88.2378 37.7398 88.2378H70.8731L74.2942 96.1435C74.5193 96.6635 75.0318 97 75.5982 97H80.9448C81.7297 97 82.3657 96.364 82.3657 95.5791V88.0654C84.9457 87.4273 86.8643 85.0927 86.8643 82.3183V57.37C86.8643 56.5851 86.2283 55.9491 85.4434 55.9491C84.6585 55.9491 84.0225 56.5851 84.0225 57.37V77.1084H12.9775V22.4966H26.5196C27.3046 22.4966 27.9405 21.8606 27.9405 21.0757C27.9405 20.2908 27.3046 19.6548 26.5196 19.6548H12.9775V5.91946C12.9775 4.22234 14.3581 2.8418 16.0552 2.8418H59.8598V19.6548H33.0653C32.2803 19.6548 31.6444 20.2908 31.6444 21.0757C31.6444 21.8606 32.2803 22.4966 33.0653 22.4966H84.0225V50.7945C84.0225 51.5794 84.6585 52.2154 85.4434 52.2154ZM17.4761 88.2378H23.0303L20.4683 94.1582H17.4761V88.2378ZM79.5239 94.1582H76.5317L73.9697 88.2378H79.5239V94.1582ZM62.7016 19.6548V2.8418H80.9448C82.6419 2.8418 84.0225 4.22234 84.0225 5.91946V19.6548H62.7016Z" fill="black"/>
<path d="M36.4935 16.1232C39.3879 16.1232 41.743 13.7682 41.743 10.8737C41.743 7.97922 39.3879 5.62413 36.4935 5.62413C33.599 5.62413 31.2439 7.97922 31.2439 10.8737C31.2439 13.7682 33.599 16.1232 36.4935 16.1232ZM36.4935 8.46593C37.8211 8.46593 38.9012 9.546 38.9012 10.8737C38.9012 12.2014 37.8211 13.2814 36.4935 13.2814C35.1658 13.2814 34.0857 12.2014 34.0857 10.8737C34.0857 9.546 35.1658 8.46593 36.4935 8.46593Z" fill="black"/>
<path d="M47.4875 9.44727H53.7524C54.5373 9.44727 55.1733 8.81128 55.1733 8.02637C55.1733 7.24147 54.5373 6.60548 53.7524 6.60548H47.4875C46.7026 6.60548 46.0667 7.24147 46.0667 8.02637C46.0667 8.81128 46.7028 9.44727 47.4875 9.44727Z" fill="black"/>
<path d="M73.2651 6.60548C72.4802 6.60548 71.8442 7.24147 71.8442 8.02637V13.7208C71.8442 14.5057 72.4802 15.1417 73.2651 15.1417C74.05 15.1417 74.686 14.5057 74.686 13.7208V8.02637C74.686 7.24166 74.0499 6.60548 73.2651 6.60548Z" fill="black"/>
<path d="M47.4875 15.1417H53.7524C54.5373 15.1417 55.1733 14.5057 55.1733 13.7208C55.1733 12.9359 54.5373 12.2999 53.7524 12.2999H47.4875C46.7026 12.2999 46.0667 12.9359 46.0667 13.7208C46.0667 14.5057 46.7028 15.1417 47.4875 15.1417Z" fill="black"/>
<path d="M48.5 73.2077C61.3926 73.2077 71.8815 62.7188 71.8815 49.8262C71.8815 36.9335 61.3926 26.4446 48.5 26.4446C35.6073 26.4446 25.1184 36.9335 25.1184 49.8262C25.1184 62.7188 35.6073 73.2077 48.5 73.2077ZM48.5 29.2864C59.8257 29.2864 69.0397 38.5005 69.0397 49.8262C69.0397 61.1519 59.8257 70.3659 48.5 70.3659C37.1743 70.3659 27.9602 61.1519 27.9602 49.8262C27.9602 38.5005 37.1743 29.2864 48.5 29.2864Z" fill="black"/>
<path d="M48.5 66.2457C54.9935 66.2457 60.8891 62.4083 63.5194 56.4695C63.6932 56.0775 63.6805 55.6278 63.4848 55.246C63.2891 54.8643 62.9316 54.5915 62.5117 54.5034C60.3141 54.0426 58.7191 52.0757 58.7191 49.8262C58.7191 47.5766 60.3141 45.6095 62.5117 45.1489C62.9316 45.0608 63.2891 44.788 63.4848 44.4063C63.6803 44.0245 63.6932 43.5748 63.5194 43.1828C60.8889 37.244 54.9935 33.4066 48.5 33.4066C39.4462 33.4066 32.0804 40.7724 32.0804 49.8262C32.0804 58.8799 39.4462 66.2457 48.5 66.2457ZM48.5 36.2484C53.3477 36.2484 57.7923 38.8345 60.2114 42.9507C57.6214 44.1958 55.8775 46.8567 55.8775 49.8262C55.8775 52.7956 57.6214 55.4565 60.2114 56.7016C57.7921 60.8178 53.3477 63.4039 48.5 63.4039C41.0132 63.4039 34.9222 57.313 34.9222 49.8262C34.9222 42.3393 41.0132 36.2484 48.5 36.2484Z" fill="black"/>
<path d="M17.4921 68.598H21.5717C22.3567 68.598 22.9926 67.962 22.9926 67.1771C22.9926 66.3922 22.3567 65.7562 21.5717 65.7562H17.4921C16.7072 65.7562 16.0712 66.3922 16.0712 67.1771C16.0712 67.962 16.7074 68.598 17.4921 68.598Z" fill="black"/>
<path d="M17.4921 74.2925H25.6512C26.4361 74.2925 27.0721 73.6565 27.0721 72.8716C27.0721 72.0867 26.4361 71.4507 25.6512 71.4507H17.4921C16.7072 71.4507 16.0712 72.0867 16.0712 72.8716C16.0712 73.6565 16.7074 74.2925 17.4921 74.2925Z" fill="black"/>
<path d="M72.5291 29.4723C73.3123 29.4723 73.9472 28.8374 73.9472 28.0542C73.9472 27.271 73.3123 26.6362 72.5291 26.6362C71.746 26.6362 71.1111 27.271 71.1111 28.0542C71.1111 28.8374 71.746 29.4723 72.5291 29.4723Z" fill="black"/>
<path d="M78.2127 29.4702C78.9959 29.4702 79.6308 28.8353 79.6308 28.0521C79.6308 27.269 78.9959 26.6341 78.2127 26.6341C77.4296 26.6341 76.7947 27.269 76.7947 28.0521C76.7947 28.8353 77.4296 29.4702 78.2127 29.4702Z" fill="black"/>
<path d="M64.0663 51.2442C64.8494 51.2442 65.4843 50.6093 65.4843 49.8262C65.4843 49.043 64.8494 48.4081 64.0663 48.4081C63.2831 48.4081 62.6482 49.043 62.6482 49.8262C62.6482 50.6093 63.2831 51.2442 64.0663 51.2442Z" fill="black"/>
<path d="M16.8755 12.2205L19.4665 13.5337L20.7809 16.1272C21.0763 16.7064 21.4865 17 21.9997 17H22.0026C22.3563 16.9992 22.8545 16.8465 23.2191 16.1243L24.5322 13.5337L27.1214 12.2212C27.7043 11.9268 28 11.5164 28 11.0012C28 10.4856 27.7045 10.075 27.123 9.78136L24.5322 8.46833L23.2196 5.8788C22.9257 5.29699 22.5158 5.00129 22.0013 5C22.0005 5 21.9995 5 21.9987 5C21.6452 5 21.1483 5.15147 20.7796 5.87414L19.4665 8.46859L16.8768 9.7811C16.1533 10.1467 16.0008 10.6449 16 10.9986C15.999 11.5123 16.2929 11.9232 16.8755 12.2205ZM20.7369 10.206C20.9386 10.1037 21.1022 9.93982 21.2045 9.73812L21.9987 8.16901L22.7944 9.73863C22.8965 9.94008 23.0601 10.1037 23.2616 10.2057L24.8303 11.0009L23.2613 11.7961C23.0599 11.8981 22.8962 12.0617 22.7942 12.2632L21.999 13.8318L21.204 12.2632C21.102 12.0617 20.9383 11.8981 20.7369 11.7961L19.1679 11.0009L20.7369 10.206Z" fill="#FFAA00"/>
<path d="M45.4999 40C44.775 40 44.1873 40.5877 44.1873 41.3123V45.2498C44.1873 45.9747 44.775 46.5621 45.4999 46.5621C46.2247 46.5621 46.8124 45.9744 46.8124 45.2498V41.3123C46.8124 40.5874 46.2247 40 45.4999 40Z" fill="#FFAA00"/>
<path d="M45.4999 54.4367C44.775 54.4367 44.1873 55.0244 44.1873 55.749V59.6865C44.1873 60.4114 44.775 60.9987 45.4999 60.9987C46.2247 60.9987 46.8124 60.4111 46.8124 59.6865V55.749C46.8124 55.0244 46.2247 54.4367 45.4999 54.4367Z" fill="#FFAA00"/>
<path d="M36.3129 51.8118H40.2501C40.975 51.8118 41.5627 51.2241 41.5627 50.4992C41.5627 49.7743 40.975 49.187 40.2501 49.187H36.3126C35.5877 49.187 35 49.7747 35 50.4992C35.0003 51.2241 35.588 51.8118 36.3129 51.8118Z" fill="#FFAA00"/>
<path d="M54.6871 49.187H50.75C50.0251 49.187 49.4374 49.7747 49.4374 50.4992C49.4374 51.2241 50.0251 51.8118 50.75 51.8118H54.6875C55.4123 51.8118 56.0001 51.2241 56.0001 50.4992C55.9997 49.7747 55.412 49.187 54.6871 49.187Z" fill="#FFAA00"/>
<path d="M45.4999 51.8121C46.2248 51.8121 46.8124 51.2245 46.8124 50.4996C46.8124 49.7746 46.2248 49.187 45.4999 49.187C44.7749 49.187 44.1873 49.7746 44.1873 50.4996C44.1873 51.2245 44.7749 51.8121 45.4999 51.8121Z" fill="#FFAA00"/>
</g>
<defs>
<clipPath id="clip0">
<rect width="97" height="97" fill="white"/>
</clipPath>
</defs>
</svg>
