<svg width="87" height="87" viewBox="0 0 87 87" fill="none" xmlns="http://www.w3.org/2000/svg">
<path d="M72.51 43.3117C72.4981 64.9629 71.9137 69.2012 66.7017 74.0485C64.6622 75.9501 60.9053 79.8901 50.0638 81.8538C46.8078 82.438 42.9197 82.8606 38.2444 82.9849C36.3361 83.0346 34.5829 82.96 32.9847 82.786C31.637 82.6369 30.4085 82.4007 29.2636 82.1149C17.3487 79.0076 16.4542 68.3684 21.6662 59.4072C23.0497 57.0332 24.624 54.8582 26.2819 52.8322C28.8342 49.7002 31.5654 46.9036 34.0462 44.306C36.3361 41.9072 38.3995 39.67 39.9022 37.4576C40.5343 36.5255 41.071 35.6057 41.4766 34.6735C41.572 34.4498 41.6674 34.2385 41.7628 34.0148C42.0848 33.3064 42.4188 32.6352 42.7408 31.9889C43.361 30.7709 44.005 29.6647 44.6133 28.6704C45.1023 27.8749 45.5794 27.154 46.0207 26.5202C47.5473 24.3327 50.4216 21.1509 57.1722 21.0266C64.0301 20.9023 72.51 24.2954 72.51 43.3117Z" fill="#FFD800" fill-opacity="0.5"/>
<path d="M74.7656 40.8832V39.4219C74.7656 35.4561 73.1902 31.6527 70.3859 28.8484C67.5817 26.0442 63.7783 24.4688 59.8125 24.4688C55.8466 24.4688 52.0433 26.0442 49.239 28.8484C46.4348 31.6527 44.8593 35.4561 44.8593 39.4219V44.8594H39.4218C39.0613 44.8594 38.7155 45.0026 38.4606 45.2575C38.2057 45.5125 38.0625 45.8582 38.0625 46.2188V51.6562C38.0625 52.0168 38.2057 52.3625 38.4606 52.6175C38.7155 52.8724 39.0613 53.0156 39.4218 53.0156H39.5578L40.8451 65.25H35.3437V6.79688C35.3437 5.71529 34.9141 4.678 34.1493 3.91321C33.3845 3.14841 32.3472 2.71875 31.2656 2.71875C30.184 2.71875 29.1467 3.14841 28.3819 3.91321C27.6171 4.678 27.1875 5.71529 27.1875 6.79688V65.25H13.5937C12.8729 65.2509 12.1819 65.5376 11.6722 66.0472C11.1625 66.5569 10.8758 67.248 10.875 67.9688V71.8795L8.19683 82.5922C8.14673 82.7926 8.14297 83.0018 8.18583 83.2039C8.22869 83.406 8.31703 83.5956 8.44416 83.7585C8.57129 83.9213 8.73386 84.053 8.91951 84.1436C9.10516 84.2342 9.30902 84.2812 9.51559 84.2812H73.4062C73.7667 84.2812 74.1125 84.138 74.3674 83.8831C74.6224 83.6282 74.7656 83.2824 74.7656 82.9219V77.5557L76.6843 59.3279C77.3416 58.9674 77.8892 58.4361 78.2693 57.79C78.6494 57.1439 78.8479 56.4072 78.8437 55.6576V45.8789C78.8424 44.7042 78.436 43.5658 77.6931 42.6558C76.9502 41.7458 75.9163 41.1197 74.7656 40.8832ZM47.5781 39.4219C47.5781 37.8152 47.8945 36.2243 48.5094 34.74C49.1242 33.2556 50.0254 31.9069 51.1615 30.7709C52.2975 29.6348 53.6462 28.7336 55.1306 28.1188C56.6149 27.504 58.2058 27.1875 59.8125 27.1875C61.4191 27.1875 63.01 27.504 64.4944 28.1188C65.9787 28.7336 67.3274 29.6348 68.4635 30.7709C69.5995 31.9069 70.5007 33.2556 71.1156 34.74C71.7304 36.2243 72.0468 37.8152 72.0468 39.4219V40.7812H59.4726C58.2979 40.7826 57.1595 41.189 56.2495 41.9319C55.3395 42.6747 54.7134 43.7087 54.4769 44.8594H47.5781V39.4219ZM40.7812 47.5781H54.375V50.2969H40.7812V47.5781ZM42.2911 53.0156H54.375V55.6596C54.3773 56.2144 54.4892 56.7633 54.7043 57.2748C54.9194 57.7862 55.2334 58.2501 55.6283 58.6399C56.007 59.0181 56.4575 59.3167 56.9534 59.518C57.4493 59.7194 57.9805 59.8195 58.5156 59.8123C59.4972 59.7948 60.4398 59.4254 61.1718 58.7714C61.9188 59.4416 62.887 59.8124 63.8906 59.8124C64.8942 59.8124 65.8624 59.4416 66.6093 58.7714C67.3561 59.4414 68.3239 59.8121 69.3271 59.8123C70.3304 59.8126 71.2984 59.4424 72.0455 58.7728C72.5728 59.2467 73.2156 59.5733 73.9092 59.7199L72.1828 76.125H52.7175L51.6562 71.8795V67.9688C51.6554 67.248 51.3686 66.5569 50.859 66.0472C50.3493 65.5376 49.6583 65.2509 48.9375 65.25H43.5785L42.2911 53.0156ZM29.9062 6.79688C29.9062 6.43635 30.0494 6.09058 30.3044 5.83565C30.5593 5.58072 30.9051 5.4375 31.2656 5.4375C31.6261 5.4375 31.9719 5.58072 32.2268 5.83565C32.4817 6.09058 32.625 6.43635 32.625 6.79688V65.25H29.9062V6.79688ZM13.5937 67.9688H48.9375V70.6875H13.5937V67.9688ZM16.6941 81.5625L18.7332 73.4062H21.3683L19.3293 81.5625H16.6941ZM13.2957 73.4062H15.9308L13.8918 81.5625H11.2566L13.2957 73.4062ZM24.1707 73.4062H27.007L25.9875 81.5625H22.1316L24.1707 73.4062ZM28.7273 81.5625L29.7468 73.4062H32.7844L33.8039 81.5625H28.7273ZM36.5437 81.5625L35.5242 73.4062H38.3605L40.3996 81.5625H36.5437ZM43.2019 81.5625L41.1629 73.4062H43.798L45.8371 81.5625H43.2019ZM48.6394 81.5625L46.6004 73.4062H49.2355L51.2746 81.5625H48.6394ZM72.0468 81.5625H54.0769L53.3972 78.8438H72.0468V81.5625ZM76.125 51.6562V55.6576C76.1313 56.0157 76.0015 56.363 75.7618 56.6292C75.5221 56.8954 75.1904 57.0608 74.8336 57.092C74.6496 57.1013 74.4656 57.073 74.2928 57.0089C74.1201 56.9448 73.9622 56.8463 73.8287 56.7193C73.6952 56.5924 73.5889 56.4396 73.5163 56.2702C73.4437 56.1009 73.4062 55.9186 73.4062 55.7344V50.2969H70.6875V55.7344C70.6875 56.0949 70.5442 56.4407 70.2893 56.6956C70.0344 56.9505 69.6886 57.0938 69.3281 57.0938C68.9676 57.0938 68.6218 56.9505 68.3669 56.6956C68.1119 56.4407 67.9687 56.0949 67.9687 55.7344V50.2969H65.25V55.7344C65.25 56.0949 65.1067 56.4407 64.8518 56.6956C64.5969 56.9505 64.2511 57.0938 63.8906 57.0938C63.5301 57.0938 63.1843 56.9505 62.9294 56.6956C62.6744 56.4407 62.5312 56.0949 62.5312 55.7344V50.2969H59.8125V55.7344C59.8129 56.0913 59.6727 56.4341 59.4223 56.6885C59.1719 56.9429 58.8314 57.0885 58.4745 57.0938H58.4558C58.1096 57.0903 57.779 56.9497 57.5362 56.7029C57.3975 56.5667 57.2871 56.4044 57.2113 56.2254C57.1354 56.0464 57.0957 55.8542 57.0944 55.6598V45.8789C57.0951 45.2482 57.3459 44.6435 57.7919 44.1975C58.2379 43.7515 58.8426 43.5007 59.4733 43.5H73.7467C74.3775 43.5007 74.9821 43.7515 75.4281 44.1975C75.8741 44.6435 76.125 45.2482 76.1256 45.8789L76.125 51.6562Z" fill="black"/>
<path d="M69.328 66.6094H66.6093V73.4062H69.328V66.6094Z" fill="black"/>
<path d="M69.328 61.1719H66.6093V63.8906H69.328V61.1719Z" fill="black"/>
<path d="M83.3517 23.179C82.287 22.8213 81.3196 22.2219 80.5253 21.4277C79.7311 20.6334 79.1316 19.6661 78.7738 18.6013C78.6836 18.3307 78.5105 18.0954 78.279 17.9286C78.0476 17.7618 77.7696 17.6721 77.4843 17.6721C77.199 17.6721 76.921 17.7618 76.6896 17.9286C76.4581 18.0954 76.285 18.3307 76.1948 18.6013C75.837 19.6661 75.2375 20.6334 74.4433 21.4277C73.649 22.2219 72.6816 22.8213 71.6169 23.179C71.3462 23.2692 71.1107 23.4423 70.9438 23.6738C70.7769 23.9053 70.6871 24.1834 70.6871 24.4687C70.6871 24.7541 70.7769 25.0322 70.9438 25.2637C71.1107 25.4952 71.3462 25.6683 71.6169 25.7584C72.6816 26.1161 73.649 26.7156 74.4433 27.5098C75.2375 28.304 75.837 29.2714 76.1948 30.3361C76.285 30.6068 76.4581 30.8421 76.6896 31.0089C76.921 31.1757 77.199 31.2654 77.4843 31.2654C77.7696 31.2654 78.0476 31.1757 78.279 31.0089C78.5105 30.8421 78.6836 30.6068 78.7738 30.3361C79.1316 29.2714 79.7311 28.304 80.5253 27.5098C81.3196 26.7156 82.287 26.1161 83.3517 25.7584C83.6224 25.6683 83.8579 25.4952 84.0248 25.2637C84.1917 25.0322 84.2815 24.7541 84.2815 24.4687C84.2815 24.1834 84.1917 23.9053 84.0248 23.6738C83.8579 23.4423 83.6224 23.2692 83.3517 23.179ZM77.4843 26.9212C76.815 25.9679 75.9852 25.1381 75.032 24.4687C75.9852 23.7994 76.815 22.9696 77.4843 22.0163C78.1536 22.9696 78.9834 23.7994 79.9366 24.4687C78.9834 25.1381 78.1536 25.9679 77.4843 26.9212Z" fill="#FFAA00"/>
<path d="M9.51556 63.8906C9.80085 63.8906 10.0789 63.8008 10.3103 63.634C10.5418 63.4672 10.7149 63.2318 10.8051 62.9611C11.1628 61.8964 11.7623 60.929 12.5566 60.1348C13.3508 59.3406 14.3182 58.7411 15.383 58.3834C15.6537 58.2933 15.8892 58.1202 16.0561 57.8887C16.2229 57.6572 16.3127 57.3791 16.3127 57.0937C16.3127 56.8084 16.2229 56.5303 16.0561 56.2988C15.8892 56.0673 15.6537 55.8942 15.383 55.804C14.3182 55.4463 13.3508 54.8469 12.5566 54.0527C11.7623 53.2585 11.1628 52.2911 10.8051 51.2263C10.7148 50.9557 10.5417 50.7204 10.3103 50.5536C10.0789 50.3868 9.80083 50.2971 9.51556 50.2971C9.23029 50.2971 8.95226 50.3868 8.72082 50.5536C8.48939 50.7204 8.31628 50.9557 8.22602 51.2263C7.86828 52.2911 7.26879 53.2585 6.47455 54.0527C5.6803 54.8469 4.71289 55.4463 3.64816 55.804C3.37743 55.8942 3.14194 56.0673 2.97506 56.2988C2.80818 56.5303 2.71838 56.8084 2.71838 57.0937C2.71838 57.3791 2.80818 57.6572 2.97506 57.8887C3.14194 58.1202 3.37743 58.2933 3.64816 58.3834C4.71289 58.7411 5.6803 59.3406 6.47455 60.1348C7.26879 60.929 7.86828 61.8964 8.22602 62.9611C8.31625 63.2318 8.48934 63.4672 8.72077 63.634C8.95221 63.8008 9.23027 63.8906 9.51556 63.8906ZM9.51556 54.6413C10.1849 55.5946 11.0146 56.4244 11.9679 57.0937C11.0146 57.7631 10.1849 58.5929 9.51556 59.5462C8.84626 58.5929 8.0165 57.7631 7.06325 57.0937C8.0165 56.4244 8.84626 55.5946 9.51556 54.6413Z" fill="#FFAA00"/>
<path d="M48.9994 8C48.4471 8 47.9993 8.4478 47.9993 8.9999V12.0001C47.9993 12.5524 48.4471 13 48.9994 13C49.5517 13 49.9995 12.5522 49.9995 12.0001V8.9999C49.9995 8.44757 49.5517 8 48.9994 8Z" fill="#FFAA00"/>
<path d="M48.9994 19.0001C48.4471 19.0001 47.9993 19.4479 47.9993 20V23.0001C47.9993 23.5525 48.4471 24 48.9994 24C49.5517 24 49.9995 23.5522 49.9995 23.0001V20C49.9995 19.4479 49.5517 19.0001 48.9994 19.0001Z" fill="#FFAA00"/>
<path d="M41.9994 17H44.9993C45.5517 17 45.9995 16.5522 45.9995 15.9999C45.9995 15.4476 45.5517 15 44.9993 15H41.9992C41.4468 15 40.999 15.4478 40.999 15.9999C40.9993 16.5522 41.4471 17 41.9994 17Z" fill="#FFAA00"/>
<path d="M55.9997 15H52.9998C52.4474 15 51.9996 15.4478 51.9996 15.9999C51.9996 16.5522 52.4474 17 52.9998 17H55.9999C56.5523 17 57.0001 16.5522 57.0001 15.9999C56.9998 15.4478 56.552 15 55.9997 15Z" fill="#FFAA00"/>
<path d="M48.9994 17.0003C49.5518 17.0003 49.9995 16.5525 49.9995 16.0001C49.9995 15.4478 49.5518 15 48.9994 15C48.447 15 47.9993 15.4478 47.9993 16.0001C47.9993 16.5525 48.447 17.0003 48.9994 17.0003Z" fill="#FFAA00"/>
</svg>
