<svg width="104" height="83" viewBox="0 0 104 83" fill="none" xmlns="http://www.w3.org/2000/svg">
<g clip-path="url(#clip0)">
<path d="M4.02319 4.10559V8.70702H4.74906V4.81827H30.1545V30.3198H26.1854V31.0324H30.8649V4.10559H4.02319Z" fill="#FFAA00"/>
<path d="M8.08496 0V4.07466H8.81083V0.728172H34.2162V26.2142H30.2471V26.9269H34.9421V0H8.08496Z" fill="black"/>
<path d="M0.0539551 7.97888V34.9057H26.8957V7.97888H0.0539551ZM26.1852 34.1931H0.779824V8.70705H26.1852V34.1931Z" fill="#CCCCCC"/>
<path d="M34.8957 39.3832L28.5327 63.8467H21.3358L17.4439 47.7494L13.4285 63.8467H6.23156L0.0539551 39.3832H6.41689L9.92268 57.1847L14.2625 39.3832H20.7953L24.9652 57.1847L28.5018 39.3832H34.8957V39.3832Z" fill="#FFAA00"/>
<path d="M48.2085 59.5241H39.112L37.6602 63.8467H31.4363L40.2548 39.3832H47.1274L55.9614 63.8467H49.6757L48.2085 59.5241ZM46.6795 54.9227L43.6525 45.9677L40.6718 54.9227H46.6795Z" fill="#FFAA00"/>
<path d="M76.2392 51.1424C75.5906 52.3198 74.6022 53.2649 73.2585 53.9776C71.9149 54.6903 70.247 55.0621 68.2547 55.0621H64.579V63.8467H58.6331V39.3832H68.2547C70.2006 39.3832 71.8377 39.724 73.1813 40.3902C74.5249 41.0719 75.5288 41.986 76.2083 43.179C76.8724 44.3564 77.2122 45.7198 77.2122 47.2536C77.2122 48.679 76.8879 49.9649 76.2392 51.1424ZM70.3396 49.5311C70.8956 49.0043 71.1736 48.2452 71.1736 47.2691C71.1736 46.2931 70.8956 45.5339 70.3396 45.0071C69.7836 44.4804 68.9342 44.2015 67.8068 44.2015H64.579V50.3367H67.8068C68.9342 50.3212 69.7836 50.0579 70.3396 49.5311Z" fill="#FFAA00"/>
<path d="M85.1813 62.4833C83.2662 61.4143 81.7527 59.927 80.6253 58.0058C79.4979 56.0847 78.9419 53.9312 78.9419 51.5452C78.9419 49.1593 79.4979 47.0058 80.6253 45.1001C81.7527 43.1945 83.2662 41.7072 85.1813 40.6381C87.0963 39.5691 89.1967 39.0424 91.4824 39.0424C93.7682 39.0424 95.8685 39.5846 97.7836 40.6381C99.6987 41.7072 101.197 43.1945 102.293 45.1001C103.39 47.0058 103.946 49.1593 103.946 51.5452C103.946 53.9312 103.39 56.0847 102.278 58.0058C101.166 59.927 99.6678 61.4143 97.7682 62.4833C95.8685 63.5523 93.7682 64.0791 91.4824 64.0791C89.1813 64.0946 87.0809 63.5523 85.1813 62.4833ZM96.1465 56.7044C97.3203 55.403 97.9071 53.6833 97.9071 51.5452C97.9071 49.3917 97.3203 47.6565 96.1465 46.3706C94.9728 45.0846 93.4129 44.4339 91.4824 44.4339C89.521 44.4339 87.9458 45.0691 86.772 46.3551C85.5983 47.6255 85.0114 49.3607 85.0114 51.5452C85.0114 53.6988 85.5983 55.434 86.772 56.7199C87.9458 58.0058 89.5056 58.6565 91.4824 58.6565C93.4284 58.6565 94.9728 58.0058 96.1465 56.7044Z" fill="#FFAA00"/>
</g>
<path d="M23.211 68.576L21.015 77H18.531L17.187 71.456L15.795 77H13.311L11.175 68.576H13.371L14.583 74.708L16.083 68.576H18.339L19.779 74.708L21.003 68.576H23.211ZM27.2881 77.096C26.6321 77.096 26.0401 76.956 25.5121 76.676C24.9921 76.396 24.5801 75.996 24.2761 75.476C23.9801 74.956 23.8321 74.348 23.8321 73.652C23.8321 72.964 23.9841 72.36 24.2881 71.84C24.5921 71.312 25.0081 70.908 25.5361 70.628C26.0641 70.348 26.6561 70.208 27.3121 70.208C27.9681 70.208 28.5601 70.348 29.0881 70.628C29.6161 70.908 30.0321 71.312 30.3361 71.84C30.6401 72.36 30.7921 72.964 30.7921 73.652C30.7921 74.34 30.6361 74.948 30.3241 75.476C30.0201 75.996 29.6001 76.396 29.0641 76.676C28.5361 76.956 27.9441 77.096 27.2881 77.096ZM27.2881 75.32C27.6801 75.32 28.0121 75.176 28.2841 74.888C28.5641 74.6 28.7041 74.188 28.7041 73.652C28.7041 73.116 28.5681 72.704 28.2961 72.416C28.0321 72.128 27.7041 71.984 27.3121 71.984C26.9121 71.984 26.5801 72.128 26.3161 72.416C26.0521 72.696 25.9201 73.108 25.9201 73.652C25.9201 74.188 26.0481 74.6 26.3041 74.888C26.5681 75.176 26.8961 75.32 27.2881 75.32ZM33.9327 71.42C34.1727 71.052 34.4727 70.764 34.8327 70.556C35.1927 70.34 35.5927 70.232 36.0327 70.232V72.404H35.4687C34.9567 72.404 34.5727 72.516 34.3167 72.74C34.0607 72.956 33.9327 73.34 33.9327 73.892V77H31.8807V70.304H33.9327V71.42ZM41.1055 77L39.0655 74.192V77H37.0135V68.12H39.0655V73.028L41.0935 70.304H43.6255L40.8415 73.664L43.6495 77H41.1055ZM46.5665 73.64C46.5665 72.952 46.6945 72.348 46.9505 71.828C47.2145 71.308 47.5705 70.908 48.0185 70.628C48.4665 70.348 48.9665 70.208 49.5185 70.208C49.9905 70.208 50.4025 70.304 50.7545 70.496C51.1145 70.688 51.3905 70.94 51.5825 71.252V70.304H53.6345V77H51.5825V76.052C51.3825 76.364 51.1025 76.616 50.7425 76.808C50.3905 77 49.9785 77.096 49.5065 77.096C48.9625 77.096 48.4665 76.956 48.0185 76.676C47.5705 76.388 47.2145 75.984 46.9505 75.464C46.6945 74.936 46.5665 74.328 46.5665 73.64ZM51.5825 73.652C51.5825 73.14 51.4385 72.736 51.1505 72.44C50.8705 72.144 50.5265 71.996 50.1185 71.996C49.7105 71.996 49.3625 72.144 49.0745 72.44C48.7945 72.728 48.6545 73.128 48.6545 73.64C48.6545 74.152 48.7945 74.56 49.0745 74.864C49.3625 75.16 49.7105 75.308 50.1185 75.308C50.5265 75.308 50.8705 75.16 51.1505 74.864C51.4385 74.568 51.5825 74.164 51.5825 73.652ZM59.199 70.232C59.983 70.232 60.607 70.488 61.071 71C61.543 71.504 61.779 72.2 61.779 73.088V77H59.739V73.364C59.739 72.916 59.623 72.568 59.391 72.32C59.159 72.072 58.847 71.948 58.455 71.948C58.063 71.948 57.751 72.072 57.519 72.32C57.287 72.568 57.171 72.916 57.171 73.364V77H55.119V70.304H57.171V71.192C57.379 70.896 57.659 70.664 58.011 70.496C58.363 70.32 58.759 70.232 59.199 70.232ZM62.7969 73.64C62.7969 72.952 62.9249 72.348 63.1809 71.828C63.4449 71.308 63.8009 70.908 64.2489 70.628C64.6969 70.348 65.1969 70.208 65.7489 70.208C66.1889 70.208 66.5889 70.3 66.9489 70.484C67.3169 70.668 67.6049 70.916 67.8129 71.228V68.12H69.8649V77H67.8129V76.04C67.6209 76.36 67.3449 76.616 66.9849 76.808C66.6329 77 66.2209 77.096 65.7489 77.096C65.1969 77.096 64.6969 76.956 64.2489 76.676C63.8009 76.388 63.4449 75.984 63.1809 75.464C62.9249 74.936 62.7969 74.328 62.7969 73.64ZM67.8129 73.652C67.8129 73.14 67.6689 72.736 67.3809 72.44C67.1009 72.144 66.7569 71.996 66.3489 71.996C65.9409 71.996 65.5929 72.144 65.3049 72.44C65.0249 72.728 64.8849 73.128 64.8849 73.64C64.8849 74.152 65.0249 74.56 65.3049 74.864C65.5929 75.16 65.9409 75.308 66.3489 75.308C66.7569 75.308 67.1009 75.16 67.3809 74.864C67.6689 74.568 67.8129 74.164 67.8129 73.652ZM75.9444 75.416H78.6324V77H73.8924V68.576H75.9444V75.416ZM80.6432 69.608C80.2832 69.608 79.9872 69.504 79.7552 69.296C79.5312 69.08 79.4192 68.816 79.4192 68.504C79.4192 68.184 79.5312 67.92 79.7552 67.712C79.9872 67.496 80.2832 67.388 80.6432 67.388C80.9952 67.388 81.2832 67.496 81.5072 67.712C81.7392 67.92 81.8552 68.184 81.8552 68.504C81.8552 68.816 81.7392 69.08 81.5072 69.296C81.2832 69.504 80.9952 69.608 80.6432 69.608ZM81.6632 70.304V77H79.6112V70.304H81.6632ZM86.5103 72.008H85.4062V77H83.3543V72.008H82.6103V70.304H83.3543V70.112C83.3543 69.288 83.5903 68.664 84.0623 68.24C84.5343 67.808 85.2263 67.592 86.1383 67.592C86.2903 67.592 86.4023 67.596 86.4743 67.604V69.344C86.0823 69.32 85.8063 69.376 85.6463 69.512C85.4863 69.648 85.4062 69.892 85.4062 70.244V70.304H86.5103V72.008ZM93.7865 73.544C93.7865 73.736 93.7745 73.936 93.7505 74.144H89.1065C89.1385 74.56 89.2705 74.88 89.5025 75.104C89.7425 75.32 90.0345 75.428 90.3785 75.428C90.8905 75.428 91.2465 75.212 91.4465 74.78H93.6305C93.5185 75.22 93.3145 75.616 93.0185 75.968C92.7305 76.32 92.3665 76.596 91.9265 76.796C91.4865 76.996 90.9945 77.096 90.4505 77.096C89.7945 77.096 89.2105 76.956 88.6985 76.676C88.1865 76.396 87.7865 75.996 87.4985 75.476C87.2105 74.956 87.0665 74.348 87.0665 73.652C87.0665 72.956 87.2065 72.348 87.4865 71.828C87.7745 71.308 88.1745 70.908 88.6865 70.628C89.1985 70.348 89.7865 70.208 90.4505 70.208C91.0985 70.208 91.6745 70.344 92.1785 70.616C92.6825 70.888 93.0745 71.276 93.3545 71.78C93.6425 72.284 93.7865 72.872 93.7865 73.544ZM91.6865 73.004C91.6865 72.652 91.5665 72.372 91.3265 72.164C91.0865 71.956 90.7865 71.852 90.4265 71.852C90.0825 71.852 89.7905 71.952 89.5505 72.152C89.3185 72.352 89.1745 72.636 89.1185 73.004H91.6865Z" fill="black"/>
<defs>
<clipPath id="clip0">
<rect width="103.892" height="64.0946" fill="white" transform="translate(0.0539551)"/>
</clipPath>
</defs>
</svg>
