<svg width="130" height="80" viewBox="0 0 130 80" fill="none" xmlns="http://www.w3.org/2000/svg">
<path d="M4.96655 5.12451V10.8678H5.87483V6.01405H37.6646V37.8439H32.6981V38.7334H38.5536V5.12451H4.96655Z" fill="black" fill-opacity="0.8"/>
<path d="M10.0491 0V5.08581H10.9574V0.908871H42.7472V32.7194H37.7806V33.6089H43.6554V0H10.0491Z" fill="black"/>
<path d="M0 9.95898V43.5679H33.587V9.95898H0ZM32.6981 42.6784H0.90828V10.8679H32.6981V42.6784Z" fill="#CCCCCC"/>
<path d="M43.5975 49.1565L35.6355 79.6907H26.63L21.7601 59.5989L16.7355 79.6907H7.73004L0 49.1565H7.96195L12.3487 71.3755L17.7791 49.1565H25.9536L31.1714 71.3755L35.5969 49.1565H43.5975Z" fill="black" fill-opacity="0.8"/>
<path d="M60.2556 74.2955H48.8731L47.0566 79.6907H39.2686L50.3032 49.1565H58.9029L69.9568 79.6907H62.0915L60.2556 74.2955ZM58.3424 68.5522L54.5547 57.375L50.825 68.5522H58.3424Z" fill="black" fill-opacity="0.8"/>
<path d="M95.3307 63.8338C94.519 65.3035 93.2822 66.4831 91.6009 67.3726C89.9196 68.2621 87.8325 68.7262 85.3396 68.7262H80.7402V79.6907H73.3V49.1565H85.3396C87.7746 49.1565 89.823 49.5819 91.5043 50.4134C93.1856 51.2643 94.4417 52.4052 95.292 53.8942C96.123 55.3639 96.5481 57.0656 96.5481 58.98C96.5481 60.7591 96.1423 62.3641 95.3307 63.8338ZM87.9485 61.8227C88.6442 61.1652 88.992 60.2177 88.992 58.9994C88.992 57.7811 88.6442 56.8336 87.9485 56.1761C87.2528 55.5186 86.1899 55.1705 84.7792 55.1705H80.7402V62.8282H84.7792C86.1899 62.8089 87.2528 62.4802 87.9485 61.8227Z" fill="black" fill-opacity="0.8"/>
<path d="M106.52 77.9889C104.124 76.6546 102.23 74.7982 100.819 72.4003C99.4084 70.0024 98.7126 67.3145 98.7126 64.3365C98.7126 61.3585 99.4084 58.6705 100.819 56.292C102.23 53.9135 104.124 52.057 106.52 50.7227C108.916 49.3884 111.545 48.731 114.405 48.731C117.265 48.731 119.893 49.4078 122.289 50.7227C124.686 52.057 126.56 53.9135 127.932 56.292C129.304 58.6705 130 61.3585 130 64.3365C130 67.3145 129.304 70.0024 127.913 72.4003C126.521 74.7982 124.647 76.6546 122.27 77.9889C119.893 79.3232 117.265 79.9807 114.405 79.9807C111.525 80 108.897 79.3232 106.52 77.9889ZM120.241 70.7759C121.71 69.1516 122.444 67.0051 122.444 64.3365C122.444 61.6485 121.71 59.4827 120.241 57.8777C118.772 56.2727 116.82 55.4605 114.405 55.4605C111.95 55.4605 109.979 56.2533 108.51 57.8583C107.042 59.444 106.307 61.6099 106.307 64.3365C106.307 67.0244 107.042 69.1902 108.51 70.7953C109.979 72.4003 111.931 73.2125 114.405 73.2125C116.84 73.2125 118.772 72.4003 120.241 70.7759Z" fill="black" fill-opacity="0.8"/>
</svg>
