<svg width="135" height="190" viewBox="0 0 135 190" fill="none" xmlns="http://www.w3.org/2000/svg">
<path d="M120.758 79.4393C120.736 118.753 119.625 126.448 109.714 135.25C105.837 138.703 98.6931 145.857 78.0791 149.423C71.8881 150.483 64.4952 151.251 55.6056 151.476C51.9771 151.567 48.6435 151.431 45.6047 151.115C43.0422 150.844 40.7064 150.416 38.5293 149.897C15.8743 144.255 14.1735 124.936 24.0836 108.665C26.7142 104.354 29.7077 100.405 32.8599 96.7264C37.7129 91.0393 42.9061 85.9615 47.623 81.2448C51.9771 76.8892 55.9004 72.8269 58.7578 68.8098C59.9597 67.1172 60.9802 65.4472 61.7512 63.7546C61.9326 63.3484 62.1141 62.9647 62.2955 62.5585C62.9078 61.2721 63.5427 60.0534 64.155 58.8799C65.3343 56.6682 66.5589 54.6597 67.7154 52.8542C68.6452 51.4099 69.5523 50.1009 70.3914 48.95C73.2941 44.978 78.7594 39.2006 91.595 38.9749C104.635 38.7492 120.758 44.9103 120.758 79.4393Z" fill="#FFD800" fill-opacity="0.5"/>
<path d="M58.8755 43.2205L61.4665 44.5337L62.7809 47.1272C63.0763 47.7064 63.4865 48 63.9997 48H64.0026C64.3563 47.9992 64.8545 47.8465 65.2191 47.1243L66.5322 44.5337L69.1214 43.2212C69.7043 42.9268 70 42.5164 70 42.0012C70 41.4856 69.7045 41.075 69.123 40.7814L66.5322 39.4683L65.2196 36.8788C64.9257 36.297 64.5158 36.0013 64.0013 36C64.0005 36 63.9995 36 63.9987 36C63.6452 36 63.1483 36.1515 62.7796 36.8741L61.4665 39.4686L58.8768 40.7811C58.1533 41.1467 58.0008 41.6449 58 41.9986C57.999 42.5123 58.2929 42.9232 58.8755 43.2205ZM62.7369 41.206C62.9386 41.1037 63.1022 40.9398 63.2045 40.7381L63.9987 39.169L64.7944 40.7386C64.8965 40.9401 65.0601 41.1037 65.2616 41.2057L66.8303 42.0009L65.2613 42.7961C65.0599 42.8981 64.8962 43.0617 64.7942 43.2632L63.999 44.8318L63.204 43.2632C63.102 43.0617 62.9383 42.8981 62.7369 42.7961L61.1679 42.0009L62.7369 41.206Z" fill="#FFAA00"/>
<path d="M118.484 100.609C116.295 100.609 114.592 102.09 114.009 102.672L106.091 107.422H99.75C99.2983 107.422 98.8651 107.601 98.5457 107.921C98.2263 108.24 98.0469 108.673 98.0469 109.125V112.531H94.3803L92.9143 103.735C92.8392 103.291 92.5907 102.894 92.2233 102.632C91.8559 102.37 91.3997 102.265 90.9548 102.339C90.5098 102.413 90.1125 102.661 89.85 103.028C89.5874 103.395 89.4812 103.851 89.5545 104.296L90.9272 112.531H85.8987L84.6571 103.838C84.5402 103.02 84.2268 102.243 83.7438 101.573C83.2608 100.903 82.6226 100.36 81.8838 99.9907L76.668 97.3828C76.4315 97.2646 76.1707 97.2031 75.9062 97.2031H69.0938C68.8293 97.2031 68.5685 97.2646 68.332 97.3828L63.1162 99.9907C62.3775 100.36 61.7394 100.903 61.2566 101.573C60.7738 102.244 60.4606 103.021 60.3439 103.839L59.1013 112.531H54.0728L55.4455 104.296C55.4828 104.075 55.4762 103.849 55.426 103.631C55.3759 103.412 55.2831 103.206 55.1532 103.024C55.0232 102.841 54.8586 102.687 54.6686 102.568C54.4787 102.449 54.2673 102.369 54.0464 102.332C53.8255 102.295 53.5995 102.303 53.3813 102.353C53.1632 102.404 52.9571 102.497 52.775 102.627C52.5929 102.758 52.4383 102.923 52.32 103.113C52.2017 103.303 52.1221 103.514 52.0857 103.735L50.6197 112.531H46.9531V109.125C46.9531 108.673 46.7737 108.24 46.4543 107.921C46.1349 107.601 45.7017 107.422 45.25 107.422H38.9091L30.9912 102.672C30.4083 102.09 28.7052 100.609 26.5156 100.609C25.161 100.611 23.8623 101.15 22.9044 102.108C21.9466 103.065 21.4078 104.364 21.4063 105.719V126.156C21.4062 126.514 21.5186 126.862 21.7276 127.152C21.9366 127.442 22.2315 127.659 22.5705 127.772L23.1094 127.952V139.781H21.4063V143.188H123.594V139.781H121.891V124.602L122.562 124.315C122.868 124.183 123.129 123.965 123.312 123.687C123.496 123.409 123.594 123.083 123.594 122.75V105.719C123.592 104.364 123.053 103.065 122.096 102.108C121.138 101.15 119.839 100.611 118.484 100.609ZM103.156 132.729L107.073 139.781H103.156V132.729ZM103.156 115.938H108.266C108.53 115.938 108.791 115.876 109.027 115.758L113.375 113.584V116.697L103.156 123.083V115.938ZM63.714 104.322C63.7531 104.049 63.8577 103.789 64.0189 103.566C64.1801 103.342 64.3931 103.161 64.6397 103.038L69.4955 100.609H75.5045L80.3612 103.038C80.6075 103.161 80.8202 103.342 80.9812 103.566C81.1423 103.789 81.2468 104.048 81.286 104.321L82.4584 112.531H79.3125V105.719C79.3125 105.267 79.1331 104.834 78.8137 104.514C78.4943 104.195 78.0611 104.016 77.6094 104.016H67.3906C66.9389 104.016 66.5057 104.195 66.1863 104.514C65.8669 104.834 65.6875 105.267 65.6875 105.719V112.531H62.5416L63.714 104.322ZM75.9062 112.531H69.0938V107.422H75.9062V112.531ZM99.75 115.938V119.344H45.25V115.938H99.75ZM82.7188 123.042V122.75H92.9375V139.781H77.8355L79.2269 128.65L81.2219 126.655C81.698 126.182 82.0754 125.619 82.3324 124.999C82.5893 124.378 82.7206 123.713 82.7188 123.042ZM63.7781 126.655L65.7731 128.65L67.1645 139.781H52.0625V122.75H62.2812V123.042C62.2794 123.713 62.4107 124.378 62.6676 124.999C62.9246 125.619 63.302 126.182 63.7781 126.655ZM41.8438 129.88L40.0691 123.963C39.9471 123.557 39.6778 123.211 39.314 122.992L31.625 118.379V113.584L35.9727 115.758C36.2092 115.876 36.47 115.938 36.7344 115.938H41.8438V129.88ZM26.5156 129.087L31.9377 130.894L34.4777 139.781H26.5156V129.087ZM38.0192 139.781L34.9655 129.094C34.8894 128.828 34.7496 128.584 34.5582 128.384C34.3668 128.184 34.1295 128.034 33.867 127.946L24.8125 124.929V105.719C24.8131 105.267 24.9928 104.834 25.312 104.515C25.6313 104.196 26.0641 104.016 26.5156 104.016C27.4072 104.016 28.3876 104.863 28.6528 105.152C28.7665 105.279 28.8989 105.388 29.0454 105.476L37.561 110.585C37.8258 110.744 38.1287 110.828 38.4375 110.828H43.5469V112.531H37.1361L30.6836 109.305C30.4239 109.175 30.1354 109.114 29.8453 109.127C29.5553 109.14 29.2734 109.227 29.0265 109.379C28.7795 109.532 28.5756 109.745 28.4343 109.999C28.2929 110.252 28.2187 110.538 28.2188 110.828V119.344C28.2188 119.638 28.2949 119.927 28.4398 120.183C28.5846 120.439 28.7933 120.653 29.0454 120.804L36.9956 125.574L41.2575 139.781H38.0192ZM45.25 139.781V122.75H48.6562V139.781H45.25ZM70.5972 139.781L69.0803 127.648C69.0337 127.272 68.8628 126.923 68.5947 126.655L66.1865 124.247C66.0278 124.089 65.902 123.901 65.8163 123.694C65.7306 123.488 65.6869 123.266 65.6875 123.042V122.75H79.3125V123.042C79.3131 123.266 79.2694 123.488 79.1837 123.694C79.098 123.901 78.9722 124.089 78.8135 124.247L76.4053 126.655C76.1373 126.923 75.9663 127.272 75.9195 127.648L74.4026 139.781H70.5972ZM96.3438 139.781V122.75H99.75V139.781H96.3438ZM110.971 139.781L103.728 126.743L115.98 119.085C116.225 118.932 116.427 118.719 116.567 118.466C116.708 118.214 116.781 117.93 116.781 117.641V110.828C116.781 110.538 116.707 110.252 116.566 109.999C116.424 109.745 116.221 109.532 115.974 109.379C115.727 109.227 115.445 109.14 115.155 109.127C114.865 109.114 114.576 109.175 114.316 109.305L107.864 112.531H101.453V110.828H106.562C106.871 110.828 107.174 110.744 107.439 110.585L115.955 105.476C116.101 105.388 116.233 105.279 116.347 105.152C116.562 104.912 117.555 104.016 118.484 104.016C118.936 104.016 119.369 104.196 119.688 104.515C120.007 104.834 120.187 105.267 120.188 105.719V121.627L109.298 126.294C108.926 126.454 108.623 126.74 108.443 127.103C108.263 127.465 108.218 127.88 108.316 128.273L111.194 139.781H110.971ZM118.484 139.781H114.705L111.973 128.853L118.484 126.063V139.781Z" fill="black"/>
<path d="M77.6094 69.6612V75.0625C77.6094 75.3707 77.6931 75.6732 77.8515 75.9376C78.0099 76.202 78.2371 76.4185 78.5089 76.5639C78.7806 76.7094 79.0868 76.7783 79.3947 76.7635C79.7025 76.7486 80.0006 76.6505 80.2571 76.4795L86.2102 72.5102C86.4109 73.6982 87.0254 74.777 87.9448 75.5558C88.8643 76.3345 90.0295 76.7631 91.2344 76.7656H97.5313L107.321 83.292C107.577 83.463 107.875 83.5612 108.183 83.5761C108.491 83.591 108.797 83.5221 109.069 83.3766C109.341 83.2312 109.568 83.0147 109.727 82.7502C109.885 82.4858 109.969 82.1833 109.969 81.875V76.4737C110.964 76.1204 111.826 75.4677 112.436 74.6052C113.046 73.7427 113.374 72.7126 113.375 71.6562V61.4375C113.373 60.0829 112.835 58.7842 111.877 57.8263C110.919 56.8684 109.62 56.3296 108.266 56.3281H101.453V54.625C101.452 53.2704 100.913 51.9717 99.9549 51.0138C98.9971 50.0559 97.6984 49.5171 96.3438 49.5156H79.3125C77.9579 49.5171 76.6592 50.0559 75.7013 51.0138C74.7434 51.9717 74.2046 53.2704 74.2031 54.625V64.8437C74.2043 65.9001 74.5323 66.9302 75.1422 67.7927C75.752 68.6553 76.6138 69.308 77.6094 69.6612ZM108.266 59.7344C108.717 59.735 109.15 59.9146 109.469 60.2339C109.788 60.5532 109.968 60.986 109.969 61.4375V71.6562C109.968 72.1078 109.788 72.5406 109.469 72.8599C109.15 73.1791 108.717 73.3588 108.266 73.3594C107.814 73.3594 107.381 73.5388 107.061 73.8582C106.742 74.1776 106.562 74.6108 106.562 75.0625V78.6925L98.9915 73.6455C98.7117 73.459 98.3831 73.3595 98.0469 73.3594H91.2344C90.7829 73.3588 90.35 73.1791 90.0308 72.8599C89.7115 72.5406 89.5319 72.1078 89.5312 71.6562V70.2969L90.0469 69.9531H96.3438C97.6984 69.9516 98.9971 69.4128 99.9549 68.4549C100.913 67.4971 101.452 66.1984 101.453 64.8437V59.7344H108.266ZM89.5312 66.5469V61.4375C89.5319 60.986 89.7115 60.5532 90.0308 60.2339C90.35 59.9146 90.7829 59.735 91.2344 59.7344H98.0469V64.8437C98.0463 65.2953 97.8666 65.7281 97.5474 66.0474C97.2281 66.3666 96.7953 66.5463 96.3438 66.5469H89.5312ZM77.6094 54.625C77.61 54.1735 77.7896 53.7407 78.1089 53.4214C78.4282 53.1021 78.861 52.9225 79.3125 52.9219H96.3438C96.7953 52.9225 97.2281 53.1021 97.5474 53.4214C97.8666 53.7407 98.0463 54.1735 98.0469 54.625V56.3281H91.2344C89.8798 56.3296 88.581 56.8684 87.6232 57.8263C86.6653 58.7842 86.1265 60.0829 86.125 61.4375V68.474L81.0156 71.8802V68.25C81.0156 67.7983 80.8362 67.3651 80.5168 67.0457C80.1974 66.7263 79.7642 66.5469 79.3125 66.5469C78.861 66.5463 78.4282 66.3666 78.1089 66.0474C77.7896 65.7281 77.61 65.2953 77.6094 64.8437V54.625Z" fill="black"/>
<path d="M29.9219 75.0625V80.1719C29.9219 80.4801 30.0056 80.7826 30.164 81.0471C30.3224 81.3115 30.5496 81.528 30.8214 81.6735C31.0932 81.8189 31.3994 81.8879 31.7073 81.873C32.0152 81.8581 32.3133 81.7599 32.5698 81.5889L42.3594 75.0625H50.3594C51.714 75.061 53.0127 74.5222 53.9706 73.5643C54.9284 72.6065 55.4672 71.3077 55.4688 69.9531V59.7344C55.4672 58.3798 54.9284 57.081 53.9706 56.1232C53.0127 55.1653 51.714 54.6265 50.3594 54.625H29.9219C28.5673 54.6265 27.2685 55.1653 26.3107 56.1232C25.3528 57.081 24.814 58.3798 24.8125 59.7344V69.9531C24.814 71.3077 25.3528 72.6065 26.3107 73.5643C27.2685 74.5222 28.5673 75.061 29.9219 75.0625ZM28.2188 59.7344C28.2194 59.2829 28.399 58.85 28.7183 58.5308C29.0375 58.2115 29.4704 58.0319 29.9219 58.0312H50.3594C50.8109 58.0319 51.2437 58.2115 51.563 58.5308C51.8822 58.85 52.0619 59.2829 52.0625 59.7344V69.9531C52.0619 70.4046 51.8822 70.8375 51.563 71.1567C51.2437 71.476 50.8109 71.6556 50.3594 71.6562H41.8438C41.5075 71.6564 41.1788 71.7559 40.8989 71.9424L33.3281 76.9894V73.3594C33.3281 72.9077 33.1487 72.4745 32.8293 72.1551C32.5099 71.8357 32.0767 71.6562 31.625 71.6562H29.9219C29.4704 71.6556 29.0375 71.476 28.7183 71.1567C28.399 70.8375 28.2194 70.4046 28.2188 69.9531V59.7344Z" fill="black"/>
<path d="M35.0312 63.1406H31.625V66.5469H35.0312V63.1406Z" fill="black"/>
<path d="M41.8438 63.1406H38.4375V66.5469H41.8438V63.1406Z" fill="black"/>
<path d="M48.6562 63.1406H45.25V66.5469H48.6562V63.1406Z" fill="black"/>
<path d="M72.5 95.5C73.8474 95.5 75.1645 95.1005 76.2848 94.3519C77.4051 93.6033 78.2783 92.5393 78.7939 91.2945C79.3096 90.0497 79.4445 88.6799 79.1816 87.3584C78.9187 86.0369 78.2699 84.8231 77.3172 83.8703C76.3644 82.9176 75.1506 82.2688 73.8291 82.0059C72.5076 81.743 71.1378 81.8779 69.893 82.3936C68.6482 82.9092 67.5842 83.7824 66.8356 84.9027C66.087 86.023 65.6875 87.3401 65.6875 88.6875C65.6895 90.4937 66.4079 92.2253 67.6851 93.5024C68.9622 94.7796 70.6938 95.498 72.5 95.5ZM72.5 85.2812C73.1737 85.2812 73.8323 85.481 74.3924 85.8553C74.9526 86.2296 75.3892 86.7616 75.647 87.384C75.9048 88.0064 75.9722 88.6913 75.8408 89.352C75.7094 90.0128 75.385 90.6197 74.9086 91.0961C74.4322 91.5724 73.8253 91.8969 73.1645 92.0283C72.5038 92.1597 71.8189 92.0923 71.1965 91.8345C70.5741 91.5766 70.0421 91.1401 69.6678 90.5799C69.2935 90.0198 69.0938 89.3612 69.0938 88.6875C69.0947 87.7844 69.4538 86.9185 70.0924 86.2799C70.731 85.6413 71.5969 85.2821 72.5 85.2812Z" fill="black"/>
<path d="M109.969 92.0938C109.969 93.4411 110.368 94.7583 111.117 95.8786C111.865 96.9989 112.929 97.8721 114.174 98.3877C115.419 98.9033 116.789 99.0382 118.11 98.7754C119.432 98.5125 120.646 97.8637 121.598 96.9109C122.551 95.9582 123.2 94.7443 123.463 93.4228C123.726 92.1013 123.591 90.7315 123.075 89.4867C122.56 88.2419 121.686 87.1779 120.566 86.4294C119.446 85.6808 118.129 85.2812 116.781 85.2812C114.975 85.2833 113.243 86.0017 111.966 87.2788C110.689 88.556 109.971 90.2876 109.969 92.0938ZM116.781 88.6875C117.455 88.6875 118.114 88.8873 118.674 89.2616C119.234 89.6358 119.67 90.1678 119.928 90.7902C120.186 91.4126 120.253 92.0975 120.122 92.7583C119.991 93.419 119.666 94.026 119.19 94.5023C118.713 94.9787 118.107 95.3031 117.446 95.4346C116.785 95.566 116.1 95.4985 115.478 95.2407C114.855 94.9829 114.323 94.5463 113.949 93.9862C113.575 93.426 113.375 92.7674 113.375 92.0938C113.376 91.1906 113.735 90.3248 114.374 89.6862C115.012 89.0476 115.878 88.6884 116.781 88.6875Z" fill="black"/>
<path d="M28.2188 98.9062C29.5661 98.9062 30.8833 98.5067 32.0036 97.7581C33.1239 97.0096 33.9971 95.9456 34.5127 94.7008C35.0283 93.456 35.1632 92.0862 34.9004 90.7647C34.6375 89.4432 33.9887 88.2293 33.0359 87.2766C32.0832 86.3238 30.8693 85.675 29.5478 85.4121C28.2263 85.1493 26.8565 85.2842 25.6117 85.7998C24.3669 86.3154 23.3029 87.1886 22.5544 88.3089C21.8058 89.4292 21.4063 90.7464 21.4062 92.0937C21.4083 93.8999 22.1267 95.6315 23.4038 96.9087C24.681 98.1858 26.4126 98.9042 28.2188 98.9062ZM28.2188 88.6875C28.8924 88.6875 29.551 88.8873 30.1112 89.2615C30.6713 89.6358 31.1079 90.1678 31.3657 90.7902C31.6235 91.4126 31.691 92.0975 31.5596 92.7583C31.4281 93.419 31.1037 94.026 30.6273 94.5023C30.151 94.9787 29.544 95.3031 28.8833 95.4345C28.2225 95.566 27.5376 95.4985 26.9152 95.2407C26.2928 94.9829 25.7608 94.5463 25.3866 93.9862C25.0123 93.426 24.8125 92.7674 24.8125 92.0937C24.8134 91.1906 25.1726 90.3248 25.8112 89.6862C26.4498 89.0476 27.3156 88.6884 28.2188 88.6875Z" fill="black"/>
<path d="M47.4999 77C46.775 77 46.1873 77.5877 46.1873 78.3123V82.2498C46.1873 82.9747 46.775 83.5621 47.4999 83.5621C48.2247 83.5621 48.8124 82.9744 48.8124 82.2498V78.3123C48.8124 77.5874 48.2247 77 47.4999 77Z" fill="#FFAA00"/>
<path d="M47.4999 91.4367C46.775 91.4367 46.1873 92.0244 46.1873 92.749V96.6865C46.1873 97.4114 46.775 97.9987 47.4999 97.9987C48.2247 97.9987 48.8124 97.4111 48.8124 96.6865V92.749C48.8124 92.0244 48.2247 91.4367 47.4999 91.4367Z" fill="#FFAA00"/>
<path d="M38.3129 88.8118H42.2501C42.975 88.8118 43.5627 88.2241 43.5627 87.4992C43.5627 86.7743 42.975 86.187 42.2501 86.187H38.3126C37.5877 86.187 37 86.7747 37 87.4992C37.0003 88.2241 37.588 88.8118 38.3129 88.8118Z" fill="#FFAA00"/>
<path d="M56.6871 86.187H52.7499C52.025 86.187 51.4373 86.7747 51.4373 87.4992C51.4373 88.2241 52.025 88.8118 52.7499 88.8118H56.6874C57.4123 88.8118 58 88.2241 58 87.4992C57.9997 86.7747 57.412 86.187 56.6871 86.187Z" fill="#FFAA00"/>
<path d="M47.4999 88.8121C48.2248 88.8121 48.8124 88.2245 48.8124 87.4996C48.8124 86.7746 48.2248 86.187 47.4999 86.187C46.7749 86.187 46.1873 86.7746 46.1873 87.4996C46.1873 88.2245 46.7749 88.8121 47.4999 88.8121Z" fill="#FFAA00"/>
</svg>
