<svg width="106" height="115" viewBox="0 0 106 115" fill="none" xmlns="http://www.w3.org/2000/svg">
<g filter="url(#filter0_d)">
<path d="M97.0331 41.8141C96.6628 42.8602 96.2357 43.8852 95.7537 44.8847C92.6796 51.2271 86.9781 56.3854 80.1356 58.3162C74.3771 59.9445 66.6297 58.8977 64.1255 52.631C63.5146 51.086 63.3302 49.4052 63.5916 47.7645C63.8615 46.0699 64.8024 44.5788 65.063 42.8725C65.9841 36.8384 59.8534 32.778 59.7127 26.9288C59.6569 24.6468 60.3245 21.8937 61.8388 20.1246C63.787 17.8473 66.6855 16.4318 69.3804 15.2478C72.2381 13.9916 75.2657 13.0728 78.3828 12.7878C85.958 12.0899 93.0902 15.7781 96.619 22.5578C99.6896 28.4548 99.2104 35.6962 97.0331 41.8141Z" fill="#FFEB80"/>
<path d="M79.0912 27.2472C79.1339 27.2503 79.1765 27.2534 79.2199 27.2534C79.2936 27.2534 79.3672 27.2472 79.4393 27.2371C81.369 27.2766 82.9133 28.8504 82.9156 30.7801C82.9156 31.6569 83.6266 32.3678 84.5034 32.3678C85.3802 32.3678 86.0912 31.6569 86.0912 30.7801C86.0873 27.6239 83.8902 24.8934 80.8077 24.2143V22.6886C80.8077 21.8118 80.0968 21.1008 79.2199 21.1008C78.3431 21.1008 77.6322 21.8118 77.6322 22.6886V24.2864C74.373 25.1578 72.2642 28.3108 72.7038 31.6561C73.1434 35.0014 75.9948 37.5024 79.3688 37.5024C81.3279 37.5024 82.9156 39.091 82.9156 41.0501C82.9156 43.0084 81.3279 44.5969 79.3688 44.5969C77.4097 44.5969 75.8219 43.0084 75.8219 41.0501C75.8219 40.1732 75.111 39.4623 74.2342 39.4623C73.3573 39.4623 72.6464 40.1732 72.6464 41.0501C72.6503 44.0922 74.6939 46.7537 77.6322 47.5437V49.2834C77.6322 50.1603 78.3431 50.8712 79.2199 50.8712C80.0968 50.8712 80.8077 50.1603 80.8077 49.2834V47.6166C84.1607 46.8824 86.4222 43.7395 86.0524 40.3267C85.6834 36.914 82.8017 34.3277 79.3688 34.3285C77.464 34.3293 75.8987 32.8252 75.8235 30.9219C75.7491 29.0187 77.1918 27.396 79.0912 27.2479V27.2472Z" fill="black"/>
<path d="M79.4593 13.3381C69.6917 13.3381 61.356 19.7116 58.2332 28.2458H18.8255C17.9525 28.2458 17.2439 29.0327 17.2377 29.9049L16.8625 85.6033H5.62962C4.75279 85.6033 4 86.2383 4 87.1166V94.1848C4.02016 100.839 9.26098 106.305 15.9081 106.606V106.641H64.93V106.595C65.3269 106.609 65.4905 106.641 65.7417 106.641H65.7758C72.6555 106.63 78.2274 101.05 78.2274 94.1701V58.4332C78.6243 58.4549 79.0445 58.4666 79.4554 58.4666C91.8853 58.4666 102 48.3322 102 35.9016C102 23.4717 91.89 13.3381 79.4593 13.3381ZM16.5121 103.466H16.502C11.3658 103.459 7.19876 99.3054 7.1755 94.1685V88.7788H53.2203V94.146C53.2226 97.4595 54.546 100.636 56.8966 102.972C57.0633 103.138 57.2703 103.267 57.4448 103.466H16.5121ZM75.0519 94.1685C75.0527 99.2961 70.9011 103.455 65.7743 103.466H65.744C60.5962 103.456 56.4214 99.2946 56.3958 94.1476V87.1166C56.409 86.7104 56.2539 86.3173 55.9663 86.0305C55.6787 85.7436 55.2856 85.5894 54.8802 85.6033H20.038L20.4024 31.4213H57.3517C57.0703 32.8749 56.9245 34.351 56.9168 35.831C56.9137 38.9608 57.5665 42.0557 58.8333 44.9172H43.8364C42.9588 44.9172 42.2487 45.6281 42.2487 46.5049C42.2487 47.3818 42.9588 48.0927 43.8364 48.0927H60.5559C63.8314 53.2436 69.0676 56.8346 75.0519 58.0363V94.1685ZM79.4593 55.2918C68.7637 55.2918 60.0923 46.6212 60.0931 35.9248C60.0931 25.2284 68.7637 16.5578 79.4601 16.5578C90.1557 16.5578 98.8263 25.2292 98.8263 35.9248C98.8147 46.6158 90.151 55.2802 79.4593 55.2918Z" fill="black"/>
<path d="M33.6449 55.484C30.8423 55.484 28.563 57.6912 28.563 60.4046C28.563 63.1181 30.8423 65.3253 33.6449 65.3253C36.4475 65.3253 38.7276 63.1181 38.7276 60.4046C38.7276 57.6912 36.4475 55.484 33.6449 55.484ZM33.6449 62.1498C32.5928 62.1498 31.7385 61.3668 31.7385 60.4046C31.7385 59.4418 32.5936 58.6595 33.6449 58.6595C34.6961 58.6595 35.552 59.4425 35.552 60.4046C35.552 61.3668 34.6961 62.1498 33.6449 62.1498Z" fill="black"/>
<path d="M42.2485 60.3977C42.2485 61.2745 42.9587 61.9855 43.8363 61.9855H65.0042C65.8811 61.9855 66.592 61.2745 66.592 60.3977C66.592 59.5209 65.8811 58.8099 65.0042 58.8099H43.8363C42.9587 58.8099 42.2485 59.5209 42.2485 60.3977Z" fill="black"/>
<path d="M33.6449 41.6819C30.8423 41.6819 28.563 43.8899 28.563 46.6033C28.563 49.3167 30.8423 51.5239 33.6449 51.5239C36.4475 51.5239 38.7276 49.3167 38.7276 46.6033C38.7276 43.8899 36.4475 41.6819 33.6449 41.6819ZM33.6449 48.3484C32.5928 48.3484 31.7385 47.5654 31.7385 46.6033C31.7385 45.6412 32.5936 44.8574 33.6449 44.8574C34.6961 44.8574 35.552 45.6404 35.552 46.6033C35.552 47.5654 34.6961 48.3492 33.6449 48.3492V48.3484Z" fill="black"/>
<path d="M33.6449 69.2847C30.8423 69.2847 28.563 71.4919 28.563 74.2053C28.563 76.9187 30.8423 79.1259 33.6449 79.1259C36.4475 79.1259 38.7276 76.9187 38.7276 74.2053C38.7276 71.4919 36.4475 69.2847 33.6449 69.2847ZM33.6449 75.9504C32.5928 75.9504 31.7385 75.1682 31.7385 74.2053C31.7385 73.2432 32.5936 72.4602 33.6449 72.4602C34.6961 72.4602 35.552 73.2432 35.552 74.2053C35.552 75.1674 34.6961 75.9504 33.6449 75.9504Z" fill="black"/>
<path d="M65.0042 72.7028H43.8363C42.9587 72.7028 42.2485 73.4137 42.2485 74.2905C42.2485 75.1673 42.9587 75.8783 43.8363 75.8783H65.0042C65.8811 75.8783 66.592 75.1673 66.592 74.2905C66.592 73.4137 65.8811 72.7028 65.0042 72.7028Z" fill="black"/>
<path d="M50.4999 3C49.775 3 49.1873 3.5877 49.1873 4.31229V8.24976C49.1873 8.97466 49.775 9.56206 50.4999 9.56206C51.2247 9.56206 51.8124 8.97435 51.8124 8.24976V4.31229C51.8124 3.5874 51.2247 3 50.4999 3Z" fill="#FFAA00"/>
<path d="M50.4999 17.4367C49.775 17.4367 49.1873 18.0244 49.1873 18.749V22.6865C49.1873 23.4114 49.775 23.9987 50.4999 23.9987C51.2247 23.9987 51.8124 23.4111 51.8124 22.6865V18.749C51.8124 18.0244 51.2247 17.4367 50.4999 17.4367Z" fill="#FFAA00"/>
<path d="M41.3129 14.8118H45.2501C45.975 14.8118 46.5627 14.2241 46.5627 13.4992C46.5627 12.7743 45.975 12.1869 45.2501 12.1869H41.3126C40.5877 12.1869 40 12.7747 40 13.4992C40.0003 14.2241 40.588 14.8118 41.3129 14.8118Z" fill="#FFAA00"/>
<path d="M59.6871 12.1869H55.7499C55.025 12.1869 54.4373 12.7747 54.4373 13.4992C54.4373 14.2241 55.025 14.8118 55.7499 14.8118H59.6874C60.4123 14.8118 61 14.2241 61 13.4992C60.9997 12.7747 60.412 12.1869 59.6871 12.1869Z" fill="#FFAA00"/>
<path d="M50.4999 14.8121C51.2248 14.8121 51.8124 14.2245 51.8124 13.4996C51.8124 12.7746 51.2248 12.1869 50.4999 12.1869C49.7749 12.1869 49.1873 12.7746 49.1873 13.4996C49.1873 14.2245 49.7749 14.8121 50.4999 14.8121Z" fill="#FFAA00"/>
<path d="M62.8755 7.22045L65.4665 8.53374L66.7809 11.1272C67.0763 11.7064 67.4865 12 67.9997 12H68.0026C68.3563 11.9992 68.8545 11.8465 69.2191 11.1243L70.5322 8.53374L73.1214 7.22123C73.7043 6.92683 74 6.51643 74 6.00117C74 5.48564 73.7045 5.07498 73.123 4.78136L70.5322 3.46833L69.2196 0.878796C68.9257 0.296985 68.5158 0.00129464 68.0013 0C68.0005 0 67.9995 0 67.9987 0C67.6452 0 67.1483 0.151475 66.7796 0.874141L65.4665 3.46859L62.8768 4.7811C62.1533 5.1467 62.0008 5.64488 62 5.99857C61.999 6.51229 62.2929 6.9232 62.8755 7.22045ZM66.7369 5.206C66.9386 5.10372 67.1022 4.93982 67.2045 4.73812L67.9987 3.16901L68.7944 4.73863C68.8965 4.94008 69.0601 5.10372 69.2616 5.20574L70.8303 6.00091L69.2613 6.79608C69.0599 6.89809 68.8962 7.06173 68.7942 7.26318L67.999 8.83176L67.204 7.26318C67.102 7.06173 66.9383 6.89809 66.7369 6.79608L65.1679 6.00091L66.7369 5.206Z" fill="#FFAA00"/>
</g>
<defs>
<filter id="filter0_d" x="0" y="0" width="106" height="114.641" filterUnits="userSpaceOnUse" color-interpolation-filters="sRGB">
<feFlood flood-opacity="0" result="BackgroundImageFix"/>
<feColorMatrix in="SourceAlpha" type="matrix" values="0 0 0 0 0 0 0 0 0 0 0 0 0 0 0 0 0 0 127 0" result="hardAlpha"/>
<feOffset dy="4"/>
<feGaussianBlur stdDeviation="2"/>
<feComposite in2="hardAlpha" operator="out"/>
<feColorMatrix type="matrix" values="0 0 0 0 0 0 0 0 0 0 0 0 0 0 0 0 0 0 0.25 0"/>
<feBlend mode="normal" in2="BackgroundImageFix" result="effect1_dropShadow"/>
<feBlend mode="normal" in="SourceGraphic" in2="effect1_dropShadow" result="shape"/>
</filter>
</defs>
</svg>
