<svg width="248" height="153" viewBox="0 0 248 153" fill="none" xmlns="http://www.w3.org/2000/svg">
<path d="M9.47461 9.80054V20.7846H11.2073V11.5018H71.8525V72.3763H62.3778V74.0775H73.5483V9.80054H9.47461Z" fill="#FFAA00"/>
<path d="M19.1705 0V9.72661H20.9033V1.73822H81.5484V62.5758H72.0738V64.277H83.2811V0H19.1705Z" fill="black"/>
<path d="M0 19.0464V83.3234H64.0737V19.0464H0ZM62.3779 81.6222H1.73272V20.7846H62.3779V81.6222Z" fill="#CCCCCC"/>
<path d="M83.1705 94.0117L67.9816 152.408H50.8018L41.5115 113.983L31.9263 152.408H14.7465L0 94.0117H15.1889L23.5576 136.506L33.9171 94.0117H49.5115L59.4654 136.506L67.9078 94.0117H83.1705Z" fill="#FFAA00"/>
<path d="M114.949 142.09H93.2351L89.7696 152.408H74.9125L95.9632 94.0117H112.369L133.456 152.408H118.452L114.949 142.09ZM111.3 131.106L104.074 109.73L96.9586 131.106H111.3Z" fill="#FFAA00"/>
<path d="M181.862 122.082C180.313 124.893 177.954 127.149 174.747 128.85C171.539 130.551 167.558 131.439 162.802 131.439H154.028V152.408H139.834V94.0117H162.802C167.447 94.0117 171.355 94.8254 174.562 96.4156C177.77 98.0429 180.166 100.225 181.788 103.073C183.373 105.883 184.184 109.138 184.184 112.799C184.184 116.202 183.41 119.271 181.862 122.082ZM167.779 118.236C169.106 116.978 169.77 115.166 169.77 112.836C169.77 110.506 169.106 108.694 167.779 107.437C166.452 106.179 164.424 105.514 161.733 105.514H154.028V120.159H161.733C164.424 120.122 166.452 119.493 167.779 118.236Z" fill="#FFAA00"/>
<path d="M203.207 149.154C198.636 146.602 195.023 143.052 192.332 138.466C189.641 133.88 188.313 128.739 188.313 123.044C188.313 117.348 189.641 112.207 192.332 107.658C195.023 103.11 198.636 99.5591 203.207 97.0073C207.779 94.4554 212.793 93.198 218.249 93.198C223.705 93.198 228.719 94.4924 233.29 97.0073C237.862 99.5591 241.438 103.11 244.055 107.658C246.673 112.207 248 117.348 248 123.044C248 128.739 246.673 133.88 244.018 138.466C241.364 143.052 237.788 146.602 233.253 149.154C228.719 151.706 223.705 152.963 218.249 152.963C212.756 153 207.742 151.706 203.207 149.154ZM229.382 135.359C232.184 132.252 233.585 128.147 233.585 123.044C233.585 117.903 232.184 113.761 229.382 110.691C226.581 107.621 222.857 106.068 218.249 106.068C213.567 106.068 209.806 107.585 207.005 110.654C204.203 113.687 202.802 117.829 202.802 123.044C202.802 128.184 204.203 132.326 207.005 135.396C209.806 138.466 213.53 140.019 218.249 140.019C222.894 140.019 226.581 138.466 229.382 135.359Z" fill="#FFAA00"/>
</svg>
