<svg width="46" height="45" viewBox="0 0 46 45" fill="none" xmlns="http://www.w3.org/2000/svg">
<path d="M23.2788 0C10.8564 0 0.75 10.0935 0.75 22.5C0.75 34.9065 10.8564 45 23.2788 45C35.7012 45 45.8076 34.9065 45.8076 22.5C45.8076 10.0935 35.7012 0 23.2788 0ZM23.2788 43.3178C11.6986 43.3178 2.43439 34.0654 2.43439 22.5C2.43439 10.9346 11.6986 1.68224 23.2788 1.68224C34.859 1.68224 44.1232 10.9346 44.1232 22.5C44.1232 34.0654 34.859 43.3178 23.2788 43.3178Z" fill="#FFAA00"/>
<path d="M38.0163 15.3506C37.5952 14.0889 36.5425 13.0375 35.2792 12.6169C32.9631 11.9861 23.2778 11.9861 23.2778 11.9861C23.2778 11.9861 13.5926 11.9861 11.2765 12.6169C10.0132 13.0375 8.96046 14.0889 8.53936 15.3506C7.90771 17.6637 7.90771 22.7104 7.90771 22.7104C7.90771 22.7104 7.90771 27.7571 8.53936 30.0702C8.96046 31.3319 10.0132 32.3833 11.2765 32.8038C13.5926 33.4347 23.2778 33.4347 23.2778 33.4347C23.2778 33.4347 32.9631 33.4347 35.2792 32.8038C36.5425 32.3833 37.5952 31.3319 38.0163 30.0702C38.648 27.7571 38.648 22.7104 38.648 22.7104C38.648 22.7104 38.648 17.6637 38.0163 15.3506ZM20.1196 27.3366V18.0842L28.1205 22.7104L20.1196 27.3366Z" fill="#FFAA00"/>
</svg>
